<svg width="17" height="16" viewBox="0 0 17 16" fill="none" xmlns="http://www.w3.org/2000/svg">
<path d="M13.4587 1.99999H12.042V1.33332C12.042 0.933323 11.7587 0.666656 11.3337 0.666656C10.9087 0.666656 10.6253 0.933323 10.6253 1.33332V1.99999H6.37533V1.33332C6.37533 0.933323 6.09199 0.666656 5.66699 0.666656C5.24199 0.666656 4.95866 0.933323 4.95866 1.33332V1.99999H3.54199C2.33783 1.99999 1.41699 2.86666 1.41699 3.99999V13.3333C1.41699 14.4667 2.33783 15.3333 3.54199 15.3333H13.4587C14.6628 15.3333 15.5837 14.4667 15.5837 13.3333V3.99999C15.5837 2.86666 14.6628 1.99999 13.4587 1.99999ZM3.54199 3.33332H4.95866V3.99999C4.95866 4.39999 5.24199 4.66666 5.66699 4.66666C6.09199 4.66666 6.37533 4.39999 6.37533 3.99999V3.33332H10.6253V3.99999C10.6253 4.39999 10.9087 4.66666 11.3337 4.66666C11.7587 4.66666 12.042 4.39999 12.042 3.99999V3.33332H13.4587C13.8837 3.33332 14.167 3.59999 14.167 3.99999V5.99999H2.83366V3.99999C2.83366 3.59999 3.11699 3.33332 3.54199 3.33332ZM13.4587 14H3.54199C3.11699 14 2.83366 13.7333 2.83366 13.3333V7.33332H14.167V13.3333C14.167 13.7333 13.8837 14 13.4587 14Z" fill="#292730"/>
</svg>
