<svg width="52" height="58" viewBox="0 0 52 58" fill="none" xmlns="http://www.w3.org/2000/svg">
<path d="M17.8898 40.4189C14.8085 37.5188 12.9961 33.5315 12.9961 29.0001C12.9961 24.4688 14.8085 20.4814 17.7086 17.5813C20.2461 15.044 20.2461 11.0564 17.7086 8.51887C15.171 5.98134 11.1837 5.98134 8.64612 8.51887C3.57105 13.7751 0.308594 21.0252 0.308594 29.0001C0.308594 36.9751 3.57105 44.2251 8.8273 49.4814C11.3648 52.0189 15.3524 52.0189 17.8898 49.4814C20.2461 46.9439 20.2461 42.9563 17.8898 40.4189Z" fill="#FAE501"/>
<path d="M17.8894 17.5812C20.7895 14.4999 24.7769 12.6875 29.3082 12.6875C33.8396 12.6875 37.8269 14.4999 40.727 17.4C43.2644 19.9375 47.252 19.9375 49.7895 17.4C52.327 14.8624 52.327 10.8751 49.7895 8.33753C44.5332 3.26246 37.2832 0 29.3082 0C21.3333 0 14.0832 3.26246 8.82698 8.51871C6.28944 11.0562 6.28944 15.0438 8.82698 17.5812C11.3645 19.9375 15.3521 19.9375 17.8894 17.5812Z" fill="#4FB5E1"/>
<path d="M40.727 40.4189C37.8269 43.5 33.8396 45.3126 29.3082 45.3126C24.7769 45.3126 20.7895 43.5 17.8894 40.5999C15.3521 38.0625 11.3645 38.0625 8.82698 40.5999C6.28944 43.1376 6.28944 47.125 8.82698 49.6625C14.0832 54.7376 21.3333 58 29.3082 58C37.2832 58 44.5332 54.7376 49.7895 49.4813C52.327 46.9438 52.327 42.9562 49.7895 40.4189C47.252 38.0625 43.2644 38.0625 40.727 40.4189Z" fill="#F05751"/>
<path d="M13.3584 19.3938C16.8619 19.3938 19.7021 16.5536 19.7021 13.05C19.7021 9.54649 16.8619 6.7063 13.3584 6.7063C9.85484 6.7063 7.01465 9.54649 7.01465 13.05C7.01465 16.5536 9.85484 19.3938 13.3584 19.3938Z" fill="#0681B6"/>
<path d="M13.3584 51.2937C16.8619 51.2937 19.7021 48.4535 19.7021 44.9499C19.7021 41.4464 16.8619 38.6062 13.3584 38.6062C9.85484 38.6062 7.01465 41.4464 7.01465 44.9499C7.01465 48.4535 9.85484 51.2937 13.3584 51.2937Z" fill="#CD4739"/>
</svg>
