<svg width="58" height="58" viewBox="0 0 58 58" fill="none" xmlns="http://www.w3.org/2000/svg">
<path d="M44.4062 0H13.5938C6.08613 0 0 6.08613 0 13.5938V44.4062C0 51.9139 6.08613 58 13.5938 58H44.4062C51.9139 58 58 51.9139 58 44.4062V13.5938C58 6.08613 51.9139 0 44.4062 0Z" fill="#0277BD"/>
<path d="M12.1784 23.2569L12.8268 30.4937H29.0217V23.2569H12.1784ZM29.0215 8.60938H10.875L11.5329 15.8462H29.0215V8.60938ZM29.0215 49.5812V42.0518L28.9898 42.0602L20.9301 39.8841L20.4149 34.1122H13.1501L14.164 45.4752L28.9882 49.5905L29.0215 49.5812Z" fill="#EBEBEB"/>
<path d="M37.9085 30.4937L37.0684 39.8793L28.9971 42.0579V49.5868L43.8331 45.4752L43.9418 44.2524L45.6424 25.2003L45.8189 23.2569L47.1255 8.60938H28.9971V15.8462H39.1944L38.536 23.2569H28.9971V30.4937H37.9085Z" fill="white"/>
</svg>
