<svg width="40" height="58" viewBox="0 0 40 58" fill="none" xmlns="http://www.w3.org/2000/svg">
<path d="M10.3336 58.0001C15.6696 58.0001 20.0003 53.6694 20.0003 48.3334V38.6667H10.3336C4.99765 38.6667 0.666992 42.9974 0.666992 48.3334C0.666992 53.6694 4.99765 58.0001 10.3336 58.0001Z" fill="#0ACF83"/>
<path d="M0.666992 28.9999C0.666992 23.6639 4.99765 19.3333 10.3336 19.3333H20.0003V38.6666H10.3336C4.99765 38.6666 0.666992 34.3359 0.666992 28.9999Z" fill="#A259FF"/>
<path d="M0.666992 9.66665C0.666992 4.33066 4.99765 0 10.3336 0H20.0003V19.3333H10.3336C4.99765 19.3333 0.666992 15.0026 0.666992 9.66665Z" fill="#F24E1E"/>
<path d="M20 0H29.6667C35.0026 0 39.3333 4.33066 39.3333 9.66665C39.3333 15.0026 35.0026 19.3333 29.6667 19.3333H20V0Z" fill="#FF7262"/>
<path d="M39.3333 28.9999C39.3333 34.3359 35.0026 38.6666 29.6667 38.6666C24.3307 38.6666 20 34.3359 20 28.9999C20 23.6639 24.3307 19.3333 29.6667 19.3333C35.0026 19.3333 39.3333 23.6639 39.3333 28.9999Z" fill="#1ABCFE"/>
</svg>
