<svg width="54" height="58" viewBox="0 0 54 58" fill="none" xmlns="http://www.w3.org/2000/svg">
<path d="M53.197 50.7421C53.2023 51.7637 52.9904 52.7747 52.5754 53.7082C52.1604 54.6417 51.5517 55.4763 50.7897 56.1567C50.0277 56.8372 49.1298 57.3479 48.1555 57.655C47.1812 57.9621 46.1527 58.0587 45.1382 57.9383C41.4453 57.3918 38.7393 54.1784 38.8293 50.4464V7.54054C38.7401 3.80464 41.4529 0.589409 45.1505 0.0488978C46.164 -0.0697559 47.1912 0.0281244 48.164 0.336065C49.1369 0.644005 50.0333 1.15499 50.7939 1.83521C51.5545 2.51544 52.1621 3.34941 52.5763 4.28196C52.9906 5.21451 53.2021 6.22439 53.197 7.2448V50.7421Z" fill="#F9AB00"/>
<path d="M7.98656 43.6324C11.9541 43.6324 15.1704 46.8488 15.1704 50.8162C15.1704 54.7838 11.9541 58 7.98656 58C4.01899 58 0.802734 54.7838 0.802734 50.8164C0.802734 46.8488 4.01899 43.6324 7.98656 43.6324ZM26.8887 21.859C22.9025 22.0776 19.8095 25.4214 19.9022 29.4127V48.7092C19.9022 53.9461 22.2065 57.1253 25.5826 57.8029C26.6292 58.0151 27.71 57.9916 28.7465 57.7342C29.783 57.4768 30.7492 56.992 31.5751 56.3148C32.4009 55.6376 33.0656 54.7851 33.5211 53.8191C33.9765 52.8531 34.2113 51.7978 34.2082 50.7298V29.0801C34.21 28.123 34.0211 27.1752 33.6526 26.2919C33.2842 25.4085 32.7435 24.6074 32.0622 23.9353C31.3808 23.2631 30.5725 22.7334 29.6842 22.3769C28.796 22.0205 27.8457 21.8443 26.8887 21.859Z" fill="#E37400"/>
</svg>
