<svg width="52" height="58" viewBox="0 0 52 58" fill="none" xmlns="http://www.w3.org/2000/svg">
<path d="M51.87 20.2997C51.87 31.0251 47.0894 36.674 41.9046 40.3897L40.8973 41.0855L39.8867 41.7383L38.8805 42.3527L37.8851 42.9342L34.1213 45.0462C33.9252 45.1582 33.7322 45.2697 33.5418 45.3809L32.4335 46.0485C28.4979 48.5053 25.9948 51.1573 25.7846 57.1602L25.7702 58H14.6324C14.6324 47.6208 19.1106 41.9952 24.0986 38.2755L25.1019 37.556C25.2691 37.4406 25.4373 37.3265 25.6063 37.2138L26.6169 36.5612L27.6229 35.9468L29.5953 34.8118L32.3817 33.2531L33.524 32.5852C37.7727 30.0285 40.4987 27.4155 40.7184 21.1395L40.7328 20.2997H51.87ZM37.3693 0.000202106C37.3693 10.3783 32.8921 16.004 27.9041 19.7239L26.9008 20.4434C26.7329 20.5594 26.5645 20.6734 26.3962 20.7856L25.3856 21.4384L24.3793 22.0528L22.4068 23.1878L19.6202 24.7467L18.4778 25.4146C18.2931 25.5258 18.1112 25.637 17.9322 25.7487L16.8952 26.426C13.5604 28.7154 11.4747 31.4032 11.2835 36.8607L11.2689 37.7005H0.130859C0.130859 26.6291 5.22515 20.9675 10.5993 17.257L11.6093 16.5834L12.6186 15.9502L13.6204 15.3528L17.8798 12.9534L19.0221 12.2852C23.271 9.72858 25.9968 7.11535 26.2165 0.839751L26.231 0H37.3691L37.3693 0.000202106Z" fill="#FF3C00"/>
</svg>
