<svg width="58" height="58" viewBox="0 0 58 58" fill="none" xmlns="http://www.w3.org/2000/svg">
<path d="M5.27844 52.2022L0 0H58L52.7158 52.1943L28.9647 58L5.27844 52.2022Z" fill="#E44D26"/>
<path d="M28.999 53.5626L48.1913 48.8706L52.7069 4.26831H28.999V53.5626Z" fill="#F16529"/>
<path d="M28.9993 23.6292H19.391L18.7273 17.0727H28.9993V10.6707H10.792L10.9661 12.3882L12.7504 30.0317H28.9993V23.6292ZM28.9993 40.2568L28.9671 40.2647L20.8809 38.3388L20.3644 33.2332H13.0748L14.092 43.2857L28.9661 46.9264L28.9993 46.9184V40.2568Z" fill="#EBEBEB"/>
<path d="M28.9746 23.6292V30.0317H37.9155L37.073 38.3351L28.9746 40.2624V46.9236L43.8603 43.2857L43.9695 42.2041L45.6757 25.3486L45.8524 23.6292H43.8961H28.9746ZM28.9746 10.6707V17.0727H46.5135L46.6591 15.6343L46.9904 12.3882L47.164 10.6707H28.9746Z" fill="white"/>
</svg>
