<svg width="58" height="58" viewBox="0 0 58 58" fill="none" xmlns="http://www.w3.org/2000/svg">
<path d="M44.4062 0H13.5938C6.08613 0 0 6.08613 0 13.5938V44.4062C0 51.9139 6.08613 58 13.5938 58H44.4062C51.9139 58 58 51.9139 58 44.4062V13.5938C58 6.08613 51.9139 0 44.4062 0Z" fill="#330000"/>
<path d="M28.0336 34.5129H19.0436L17.2068 40.1922C17.1586 40.4097 16.9653 40.5547 16.7478 40.5304H12.2043C11.9386 40.5304 11.8661 40.3854 11.9386 40.0954L19.7203 17.6929C19.7928 17.4514 19.8653 17.1854 19.9618 16.8954C20.0586 16.3879 20.1068 15.8564 20.1068 15.3247C20.0828 15.2039 20.1793 15.0829 20.3003 15.0589H26.5593C26.7528 15.0589 26.8493 15.1314 26.8736 15.2522L35.6943 40.1439C35.7668 40.4097 35.6943 40.5304 35.4528 40.5304H30.4018C30.2328 40.5547 30.0636 40.4339 30.0153 40.2647L28.0336 34.5129ZM20.4453 29.6072H26.5836C26.4386 29.0997 26.2453 28.4954 26.0278 27.8672C25.8103 27.2147 25.5928 26.5139 25.3753 25.7889C25.1336 25.0397 24.9161 24.3147 24.6743 23.5654C24.4328 22.8164 24.2153 22.1154 24.0218 21.4147C23.8286 20.7382 23.6593 20.1097 23.4903 19.5297H23.4418C23.2243 20.5689 22.9586 21.6082 22.6203 22.6472C22.2578 23.8072 21.8953 25.0154 21.5086 26.2239C21.1965 27.3645 20.8418 28.4931 20.4453 29.6072ZM41.0836 19.2879C40.2861 19.3122 39.5128 18.9979 38.9328 18.4422C38.3771 17.8379 38.0871 17.0404 38.1111 16.2189C38.0871 15.3972 38.4011 14.6239 38.9811 14.0679C39.5611 13.5122 40.3346 13.2222 41.1321 13.2222C42.0746 13.2222 42.7996 13.5122 43.3311 14.0679C43.8667 14.6538 44.1528 15.4255 44.1286 16.2189C44.1528 17.0404 43.8628 17.8379 43.2828 18.4422C42.7271 19.0222 41.9053 19.3364 41.0836 19.2879ZM38.3771 40.2647V21.6564C38.3771 21.4147 38.4736 21.3179 38.6911 21.3179H43.4761C43.6936 21.3179 43.7903 21.4389 43.7903 21.6564V40.2647C43.7903 40.5304 43.6936 40.6514 43.4761 40.6514H38.7396C38.4978 40.6514 38.3771 40.5064 38.3771 40.2647Z" fill="#FF9A00"/>
</svg>
