<svg width="58" height="58" viewBox="0 0 58 58" fill="none" xmlns="http://www.w3.org/2000/svg">
<rect width="58" height="58" rx="29" fill="#2D274D"/>
<path d="M22.9986 19.0002C22.9987 17.8561 23.3259 16.7359 23.9416 15.7716C24.5573 14.8073 25.4358 14.0391 26.4736 13.5575C27.5114 13.0759 28.6652 12.9011 29.7991 13.0535C30.933 13.206 31.9997 13.6794 32.8734 14.4179C33.7472 15.1565 34.3916 16.1294 34.7308 17.2221C35.0699 18.3148 35.0896 19.4816 34.7876 20.5851C34.4856 21.6886 33.8744 22.6828 33.0261 23.4505C32.1777 24.2181 31.1277 24.7273 29.9996 24.918V28.1996H35.9997C36.7954 28.1996 37.5584 28.5157 38.1211 29.0783C38.6837 29.6409 38.9998 30.404 38.9998 31.1997V33.0797C40.4827 33.3317 41.817 34.1312 42.7385 35.32C43.66 36.5089 44.1016 38.0004 43.9759 39.4993C43.8501 40.9982 43.1662 42.3953 42.0595 43.4139C40.9528 44.4326 39.5039 44.9986 37.9997 45C36.4942 45.0015 35.0431 44.4369 33.9343 43.4184C32.8256 42.3999 32.1401 41.0019 32.0141 39.5016C31.888 38.0013 32.3304 36.5085 33.2537 35.3192C34.1769 34.13 35.5134 33.3312 36.9981 33.0813V31.1997C36.9981 30.6477 36.5501 30.1997 35.9981 30.1997H22.001C21.449 30.1997 21.001 30.6477 21.001 31.1997V33.0797C22.4846 33.3305 23.8199 34.1294 24.7423 35.3183C25.6646 36.5071 26.1067 37.9991 25.9809 39.4985C25.855 40.9979 25.1705 42.3954 24.063 43.4139C22.9554 44.4324 21.5056 44.9977 20.0009 44.9977C18.4963 44.9977 17.0465 44.4324 15.9389 43.4139C14.8314 42.3954 14.1468 40.9979 14.021 39.4985C13.8952 37.9991 14.3373 36.5071 15.2596 35.3183C16.182 34.1294 17.5173 33.3305 19.0009 33.0797V31.1997C19.0009 30.404 19.317 29.6409 19.8796 29.0783C20.4422 28.5157 21.2053 28.1996 22.001 28.1996H28.0011V24.918C26.6027 24.6815 25.3331 23.9574 24.4176 22.8742C23.502 21.791 22.9988 20.4185 22.9986 19.0002Z" fill="#FCDA69"/>
</svg>
