<svg width="29" height="29" viewBox="0 0 29 29" fill="none" xmlns="http://www.w3.org/2000/svg">
<path d="M25 14.25C25.0008 13.3887 24.7897 12.5404 24.3852 11.78C23.9808 11.0195 23.3955 10.3703 22.6809 9.88942C21.9663 9.40858 21.1444 9.11094 20.2876 9.02274C19.4308 8.93454 18.5655 9.05849 17.7679 9.38367C16.9704 9.70884 16.2651 10.2253 15.7142 10.8874C15.1633 11.5495 14.7838 12.3369 14.6091 13.1803C14.4344 14.0238 14.4699 14.8972 14.7125 15.7236C14.955 16.5501 15.3972 17.3042 16 17.9194V23.25C15.9999 23.3779 16.0325 23.5037 16.0948 23.6155C16.157 23.7272 16.2468 23.8212 16.3556 23.8884C16.4644 23.9557 16.5886 23.994 16.7163 23.9998C16.8441 24.0055 16.9712 23.9785 17.0856 23.9213L19.75 22.5881L22.4144 23.9213C22.5288 23.9785 22.6559 24.0055 22.7837 23.9998C22.9114 23.994 23.0356 23.9557 23.1444 23.8884C23.2532 23.8212 23.343 23.7272 23.4052 23.6155C23.4675 23.5037 23.5001 23.3779 23.5 23.25V17.9194C24.4619 16.9403 25.0006 15.6225 25 14.25ZM19.75 10.5C20.4917 10.5 21.2167 10.7199 21.8334 11.132C22.4501 11.544 22.9307 12.1297 23.2146 12.8149C23.4984 13.5002 23.5726 14.2542 23.4279 14.9816C23.2833 15.709 22.9261 16.3772 22.4017 16.9017C21.8772 17.4261 21.209 17.7833 20.4816 17.9279C19.7542 18.0726 19.0002 17.9984 18.3149 17.7145C17.6297 17.4307 17.044 16.9501 16.632 16.3334C16.2199 15.7167 16 14.9917 16 14.25C16 13.2554 16.3951 12.3016 17.0984 11.5983C17.8016 10.8951 18.7554 10.5 19.75 10.5ZM20.0856 21.0787C19.9814 21.0266 19.8665 20.9995 19.75 20.9995C19.6335 20.9995 19.5186 21.0266 19.4144 21.0787L17.5 22.0369V18.9928C18.2031 19.3267 18.9717 19.5 19.75 19.5C20.5283 19.5 21.2969 19.3267 22 18.9928V22.0369L20.0856 21.0787ZM14.5 20.25C14.5 20.4489 14.421 20.6397 14.2803 20.7803C14.1397 20.921 13.9489 21 13.75 21H5.5C5.10218 21 4.72064 20.842 4.43934 20.5607C4.15804 20.2794 4 19.8978 4 19.5V7.5C4 7.10218 4.15804 6.72064 4.43934 6.43934C4.72064 6.15804 5.10218 6 5.5 6H22C22.3978 6 22.7794 6.15804 23.0607 6.43934C23.342 6.72064 23.5 7.10218 23.5 7.5C23.5 7.69891 23.421 7.88968 23.2803 8.03033C23.1397 8.17098 22.9489 8.25 22.75 8.25C22.5511 8.25 22.3603 8.17098 22.2197 8.03033C22.079 7.88968 22 7.69891 22 7.5H5.5V19.5H13.75C13.9489 19.5 14.1397 19.579 14.2803 19.7197C14.421 19.8603 14.5 20.0511 14.5 20.25ZM13 15C13 15.1989 12.921 15.3897 12.7803 15.5303C12.6397 15.671 12.4489 15.75 12.25 15.75H8.5C8.30109 15.75 8.11032 15.671 7.96967 15.5303C7.82902 15.3897 7.75 15.1989 7.75 15C7.75 14.8011 7.82902 14.6103 7.96967 14.4697C8.11032 14.329 8.30109 14.25 8.5 14.25H12.25C12.4489 14.25 12.6397 14.329 12.7803 14.4697C12.921 14.6103 13 14.8011 13 15ZM13 12C13 12.1989 12.921 12.3897 12.7803 12.5303C12.6397 12.671 12.4489 12.75 12.25 12.75H8.5C8.30109 12.75 8.11032 12.671 7.96967 12.5303C7.82902 12.3897 7.75 12.1989 7.75 12C7.75 11.8011 7.82902 11.6103 7.96967 11.4697C8.11032 11.329 8.30109 11.25 8.5 11.25H12.25C12.4489 11.25 12.6397 11.329 12.7803 11.4697C12.921 11.6103 13 11.8011 13 12Z" fill="black"/>
</svg>
