<svg width="58" height="58" viewBox="0 0 58 58" fill="none" xmlns="http://www.w3.org/2000/svg">
<rect width="58" height="58" rx="29" fill="#2D274D"/>
<path d="M41.9123 21.4912H39.386V20.0877C39.386 19.2688 39.0607 18.4834 38.4816 17.9044C37.9025 17.3253 37.1172 17 36.2982 17H16.0877C15.2688 17 14.4834 17.3253 13.9044 17.9044C13.3253 18.4834 13 19.2688 13 20.0877V33.5614C13 34.3803 13.3253 35.1657 13.9044 35.7448C14.4834 36.3238 15.2688 36.6491 16.0877 36.6491H32.0877V38.0526C32.0877 38.8715 32.413 39.6569 32.9921 40.236C33.5712 40.815 34.3565 41.1404 35.1754 41.1404H41.9123C42.7312 41.1404 43.5166 40.815 44.0956 40.236C44.6747 39.6569 45 38.8715 45 38.0526V24.5789C45 23.76 44.6747 22.9747 44.0956 22.3956C43.5166 21.8165 42.7312 21.4912 41.9123 21.4912ZM16.0877 34.9649C15.7155 34.9649 15.3585 34.817 15.0953 34.5538C14.8321 34.2906 14.6842 33.9336 14.6842 33.5614V20.0877C14.6842 19.7155 14.8321 19.3585 15.0953 19.0953C15.3585 18.8321 15.7155 18.6842 16.0877 18.6842H36.2982C36.6705 18.6842 37.0275 18.8321 37.2907 19.0953C37.5539 19.3585 37.7018 19.7155 37.7018 20.0877V21.4912H35.1754C34.3565 21.4912 33.5712 21.8165 32.9921 22.3956C32.413 22.9747 32.0877 23.76 32.0877 24.5789V34.9649H16.0877ZM43.3158 38.0526C43.3158 38.4249 43.1679 38.7819 42.9047 39.0451C42.6415 39.3083 42.2845 39.4561 41.9123 39.4561H35.1754C34.8032 39.4561 34.4462 39.3083 34.183 39.0451C33.9198 38.7819 33.7719 38.4249 33.7719 38.0526V24.5789C33.7719 24.2067 33.9198 23.8497 34.183 23.5865C34.4462 23.3233 34.8032 23.1754 35.1754 23.1754H41.9123C42.2845 23.1754 42.6415 23.3233 42.9047 23.5865C43.1679 23.8497 43.3158 24.2067 43.3158 24.5789V38.0526ZM29.2807 40.2982C29.2807 40.5216 29.192 40.7358 29.0341 40.8937C28.8761 41.0516 28.6619 41.1404 28.4386 41.1404H22.8246C22.6012 41.1404 22.387 41.0516 22.2291 40.8937C22.0712 40.7358 21.9825 40.5216 21.9825 40.2982C21.9825 40.0749 22.0712 39.8607 22.2291 39.7028C22.387 39.5449 22.6012 39.4561 22.8246 39.4561H28.4386C28.6619 39.4561 28.8761 39.5449 29.0341 39.7028C29.192 39.8607 29.2807 40.0749 29.2807 40.2982ZM40.5088 26.8246C40.5088 27.0479 40.4201 27.2621 40.2621 27.42C40.1042 27.5779 39.89 27.6667 39.6667 27.6667H37.4211C37.1977 27.6667 36.9835 27.5779 36.8256 27.42C36.6677 27.2621 36.5789 27.0479 36.5789 26.8246C36.5789 26.6012 36.6677 26.387 36.8256 26.2291C36.9835 26.0712 37.1977 25.9825 37.4211 25.9825H39.6667C39.89 25.9825 40.1042 26.0712 40.2621 26.2291C40.4201 26.387 40.5088 26.6012 40.5088 26.8246Z" fill="#FCDA69"/>
</svg>
