<svg width="58" height="58" viewBox="0 0 58 58" fill="none" xmlns="http://www.w3.org/2000/svg">
<rect width="58" height="58" rx="29" fill="#2D274D"/>
<path d="M19.4117 15C18.2416 15 17.1195 15.4648 16.2921 16.2921C15.4648 17.1195 15 18.2416 15 19.4117V35.2936C15 36.4637 15.4648 37.5858 16.2921 38.4131C17.1195 39.2405 18.2416 39.7053 19.4117 39.7053H28.1909C28.385 39.0682 28.6903 38.47 29.0908 37.9406H19.4117C18.7096 37.9406 18.0364 37.6617 17.5399 37.1653C17.0435 36.6689 16.7647 35.9956 16.7647 35.2936V22.0569H37.9406V29.0167L38.1206 28.8367C38.59 28.3656 39.13 28.0073 39.7053 27.7603V19.4117C39.7053 18.2416 39.2405 17.1195 38.4131 16.2921C37.5858 15.4648 36.4637 15 35.2936 15H19.4117ZM16.7629 19.4099C16.7629 18.7079 17.0418 18.0346 17.5382 17.5382C18.0346 17.0418 18.7079 16.7629 19.4099 16.7629H35.2919C35.9939 16.7629 36.6672 17.0418 37.1636 17.5382C37.66 18.0346 37.9389 18.7079 37.9389 19.4099V20.2922H16.7629V19.4099ZM26.2091 24.0792C26.3746 24.2447 26.4675 24.469 26.4675 24.703C26.4675 24.937 26.3746 25.1613 26.2091 25.3268L22.4222 29.1173L26.2091 32.9043C26.3699 33.0707 26.4588 33.2936 26.4568 33.5249C26.4548 33.7562 26.362 33.9775 26.1984 34.1411C26.0348 34.3047 25.8135 34.3975 25.5822 34.3995C25.3508 34.4015 25.1279 34.3126 24.9615 34.1519L20.5499 29.7402C20.3845 29.5748 20.2915 29.3504 20.2915 29.1164C20.2915 28.8825 20.3845 28.6581 20.5499 28.4926L24.9615 24.081C25.127 23.9155 25.3514 23.8226 25.5853 23.8226C25.8193 23.8226 26.0437 23.9138 26.2091 24.0792ZM29.3749 32.9025C29.2095 33.0682 29.1166 33.2928 29.1168 33.5269C29.117 33.7611 29.2101 33.9856 29.3758 34.151C29.5415 34.3164 29.7661 34.4093 30.0003 34.4091C30.2344 34.409 30.4589 34.3158 30.6243 34.1501L35.036 29.7385C35.2014 29.573 35.2943 29.3486 35.2943 29.1147C35.2943 28.8807 35.2014 28.6563 35.036 28.4908L30.6243 24.0792C30.4589 23.9135 30.2344 23.8203 30.0003 23.8202C29.7661 23.82 29.5415 23.9129 29.3758 24.0783C29.2101 24.2438 29.117 24.4682 29.1168 24.7024C29.1166 24.9365 29.2095 25.1611 29.3749 25.3268L33.1637 29.1173L29.3749 32.9025ZM39.3682 30.0843L30.8449 38.6077C30.3488 39.1044 29.9969 39.7265 29.8267 40.4076L29.165 43.0511C29.0997 43.314 29.1035 43.5893 29.1761 43.8503C29.2487 44.1113 29.3876 44.3491 29.5792 44.5405C29.7708 44.732 30.0087 44.8706 30.2698 44.943C30.5308 45.0153 30.8062 45.0189 31.069 44.9534L33.7125 44.2934C34.3939 44.123 35.0161 43.7704 35.5124 43.2734L44.0358 34.7501C44.6466 34.1295 44.9874 33.2927 44.9838 32.4219C44.9803 31.5511 44.6327 30.7171 44.0169 30.1015C43.401 29.4859 42.5668 29.1386 41.6961 29.1354C40.8253 29.1322 39.9886 29.4733 39.3682 30.0843Z" fill="#FCDA69"/>
</svg>
