<svg width="58" height="58" viewBox="0 0 58 58" fill="none" xmlns="http://www.w3.org/2000/svg">
<rect width="58" height="58" rx="29" fill="#2D274D"/>
<path d="M41.7778 31.7779H35.111C34.5218 31.7785 33.957 32.0128 33.5403 32.4294C33.1237 32.8461 32.8894 33.411 32.8888 34.0002V36.2224H26.6821L21.7776 31.3179V25.1112H23.9998C24.589 25.1106 25.1539 24.8763 25.5706 24.4597C25.9872 24.043 26.2215 23.4782 26.2221 22.889V16.2222C26.2215 15.633 25.9872 15.0682 25.5706 14.6515C25.1539 14.2349 24.589 14.0006 23.9998 14H17.3331C16.7439 14.0006 16.179 14.2349 15.7624 14.6515C15.3458 15.0682 15.1115 15.633 15.1109 16.2222V22.889C15.1115 23.4782 15.3458 24.043 15.7624 24.4597C16.179 24.8763 16.7439 25.1106 17.3331 25.1112H19.5554V31.3179L14.3253 36.548C14.117 36.7563 14 37.0389 14 37.3335C14 37.6281 14.117 37.9107 14.3253 38.1191L19.8809 43.6747C20.0893 43.883 20.3719 44 20.6665 44C20.9611 44 21.2437 43.883 21.452 43.6747L26.6821 38.4446H32.8888V40.6669C32.8894 41.2561 33.1237 41.821 33.5403 42.2376C33.957 42.6542 34.5218 42.8885 35.111 42.8891H41.7778C42.367 42.8885 42.9318 42.6542 43.3485 42.2376C43.7651 41.821 43.9994 41.2561 44 40.6669V34.0002C43.9994 33.411 43.7651 32.8461 43.3485 32.4294C42.9318 32.0128 42.367 31.7785 41.7778 31.7779ZM17.3331 16.2222H23.9998V22.889H17.3331V16.2222ZM20.6665 41.318L16.682 37.3335L20.6665 33.349L24.651 37.3335L20.6665 41.318ZM35.111 40.6669V34.0002H41.7778V40.6669H35.111Z" fill="#FCDA69"/>
</svg>
