<svg width="58" height="58" viewBox="0 0 58 58" fill="none" xmlns="http://www.w3.org/2000/svg">
<rect width="58" height="58" rx="29" fill="#2D274D"/>
<path d="M29 30.5C32.594 30.5 35.8625 31.541 38.267 33.0065C39.467 33.7415 40.493 34.604 41.234 35.5415C41.963 36.4655 42.5 37.5695 42.5 38.75C42.5 40.0175 41.8835 41.0165 40.9955 41.729C40.1555 42.404 39.047 42.851 37.8695 43.163C35.5025 43.7885 32.3435 44 29 44C25.6565 44 22.4975 43.79 20.1305 43.163C18.953 42.851 17.8445 42.404 17.0045 41.729C16.115 41.015 15.5 40.0175 15.5 38.75C15.5 37.5695 16.037 36.4655 16.766 35.5415C17.507 34.604 18.5315 33.7415 19.733 33.0065C22.1375 31.541 25.4075 30.5 29 30.5ZM29 14C30.9891 14 32.8968 14.7902 34.3033 16.1967C35.7098 17.6032 36.5 19.5109 36.5 21.5C36.5 23.4891 35.7098 25.3968 34.3033 26.8033C32.8968 28.2098 30.9891 29 29 29C27.0109 29 25.1032 28.2098 23.6967 26.8033C22.2902 25.3968 21.5 23.4891 21.5 21.5C21.5 19.5109 22.2902 17.6032 23.6967 16.1967C25.1032 14.7902 27.0109 14 29 14Z" fill="#FCDA69"/>
</svg>
