<svg width="58" height="58" viewBox="0 0 58 58" fill="none" xmlns="http://www.w3.org/2000/svg">
<rect width="58" height="58" rx="29" fill="#2D274D"/>
<path d="M14.084 40.2725L23.216 31.0475L28.151 35.7725L34.1825 30.5L37.5425 33.776M44 19.25C44 18.6533 43.7629 18.081 43.341 17.659C42.919 17.2371 42.3467 17 41.75 17H16.25C15.6533 17 15.081 17.2371 14.659 17.659C14.2371 18.081 14 18.6533 14 19.25V26H44V19.25Z" stroke="#FCDA69" stroke-width="2" stroke-linecap="round" stroke-linejoin="round"/>
<path d="M44 24.5V38.75C44 39.3467 43.7629 39.919 43.341 40.341C42.919 40.7629 42.3467 41 41.75 41H20M25.334 21.5H38.834M19.3325 21.5H20.8325M14 24.5V31.25" stroke="#FCDA69" stroke-width="2" stroke-linecap="round" stroke-linejoin="round"/>
</svg>
