<svg width="58" height="58" viewBox="0 0 58 58" fill="none" xmlns="http://www.w3.org/2000/svg">
<rect width="58" height="58" rx="29" fill="#2D274D"/>
<path d="M18.2857 18.2857C18.2857 17.1491 18.7372 16.059 19.541 15.2553C20.3447 14.4515 21.4348 14 22.5714 14C23.7081 14 24.7982 14.4515 25.6019 15.2553C26.4056 16.059 26.8571 17.1491 26.8571 18.2857C26.8571 19.4224 26.4056 20.5124 25.6019 21.3162C24.7982 22.1199 23.7081 22.5714 22.5714 22.5714C21.4348 22.5714 20.3447 22.1199 19.541 21.3162C18.7372 20.5124 18.2857 19.4224 18.2857 18.2857ZM32.8121 21.68L32.9021 21.7486C33.8113 22.4225 34.9502 22.7095 36.0702 22.5468C37.1902 22.3842 38.2004 21.7851 38.8803 20.8804C39.5602 19.9756 39.8547 18.8387 39.6994 17.7176C39.5442 16.5966 38.9518 15.5825 38.0516 14.8966C37.1514 14.2107 36.0164 13.9087 34.8943 14.0566C33.7723 14.2045 32.7543 14.7901 32.0625 15.6858C31.3707 16.5815 31.0612 17.7145 31.2017 18.8374C31.3421 19.9604 31.9211 20.9823 32.8121 21.68ZM25.2886 24.7143C25.5577 24.2046 25.9269 23.7545 26.374 23.3908C26.8212 23.0272 27.337 22.7574 27.8908 22.5977C28.4446 22.438 29.0249 22.3917 29.597 22.4614C30.1692 22.5312 30.7213 22.7156 31.2205 23.0037C31.7197 23.2918 32.1556 23.6777 32.5023 24.1381C32.8489 24.5986 33.0991 25.1242 33.2379 25.6836C33.3767 26.243 33.4012 26.8247 33.31 27.3938C33.2188 27.9628 33.0138 28.5077 32.7071 28.9957C32.1173 29.9346 31.1865 30.6082 30.1103 30.8752C29.0341 31.1422 27.8964 30.9818 26.9361 30.4275C25.9757 29.8733 25.2676 28.9685 24.9604 27.9031C24.6531 26.8377 24.7708 25.6947 25.2886 24.7143ZM17.2143 24.7143H22.9357C22.5549 25.8019 22.4721 26.9716 22.6959 28.1021C22.9197 29.2325 23.442 30.2824 24.2086 31.1429H23.6429C22.5381 31.1427 21.4602 31.484 20.5569 32.12C19.6535 32.756 18.9688 33.6556 18.5964 34.6957C17.8771 34.4068 17.2037 34.0148 16.5971 33.5321C14.9857 32.2357 14 30.32 14 27.9286C14 27.0761 14.3386 26.2585 14.9414 25.6557C15.5442 25.0529 16.3618 24.7143 17.2143 24.7143ZM34.3571 31.1429C35.4616 31.1428 36.5391 31.4842 37.4421 32.1202C38.3451 32.7562 39.0294 33.6558 39.4014 34.6957C40.13 34.3979 40.805 34.01 41.4029 33.5321C43.0143 32.2357 44 30.32 44 27.9286C44 27.0761 43.6614 26.2585 43.0586 25.6557C42.4558 25.0529 41.6382 24.7143 40.7857 24.7143H35.0643C35.3 25.385 35.4286 26.1071 35.4286 26.8571C35.4306 28.4388 34.8474 29.9653 33.7914 31.1429H34.3571ZM37.3293 35.2743C37.4857 35.6514 37.5714 36.0671 37.5714 36.5C37.5714 38.8914 36.5879 40.8071 34.9743 42.1036C33.3864 43.3786 31.2564 44 29 44C26.7436 44 24.6136 43.3786 23.0257 42.1036C21.4143 40.8071 20.4286 38.8914 20.4286 36.5C20.4274 36.0776 20.5098 35.6591 20.6709 35.2686C20.8321 34.8781 21.0688 34.5233 21.3675 34.2246C21.6662 33.9259 22.021 33.6892 22.4115 33.5281C22.802 33.367 23.2204 33.2846 23.6429 33.2857H34.3571C34.9938 33.2856 35.6161 33.4745 36.1453 33.8285C36.6744 34.1825 37.0865 34.6857 37.3293 35.2743Z" fill="#FCDA69"/>
</svg>
