<svg width="58" height="58" viewBox="0 0 58 58" fill="none" xmlns="http://www.w3.org/2000/svg">
<rect width="58" height="58" rx="29" fill="#2D274D"/>
<path d="M33.44 42.2169L26.8967 43.9702C26.4305 44.0951 25.947 43.8159 25.8221 43.3497C25.6972 42.8836 25.9764 42.4 26.4425 42.2751L32.9857 40.5219C33.4519 40.397 33.9355 40.6761 34.0604 41.1423C34.1854 41.6085 33.9061 42.092 33.44 42.2169ZM30.4104 22.1088C30.3518 22.9064 29.9006 23.356 29.2001 23.3446C28.5027 23.3334 27.9951 22.8554 28.0119 22.1275C28.0281 21.4193 28.4721 20.9541 29.2275 20.9624C29.9823 20.9705 30.3565 21.4165 30.4104 22.1088ZM38.7989 19.4206C36.196 15.1214 31.0404 13.0326 26.2508 14.432C22.0592 15.6567 19.3262 18.4243 18.3324 22.6808C17.3488 26.8937 18.5731 30.5173 21.6717 33.552C22.3983 34.2637 23.0665 35.1258 23.4761 36.0457C23.8868 36.9678 24.0185 37.2561 25.0188 37.014C26.4081 36.6779 27.7788 36.2649 29.1678 35.9275C29.8799 35.7545 30.1505 35.357 30.1457 34.6391C30.1267 31.7419 30.1331 28.8445 30.1437 25.9472C30.146 25.2913 29.9398 24.7513 29.2342 24.7349C28.5199 24.7183 28.3012 25.2403 28.3072 25.9089C28.3237 27.7873 28.3122 29.6658 28.3121 31.5443C28.312 34.5662 28.3121 34.5662 25.3408 35.0004C24.2112 33.706 23.1826 32.5426 22.1704 31.3649C18.5378 27.1381 19.2021 20.8897 23.7359 17.6536C26.9931 15.3285 30.4921 15.1991 33.9807 17.1622C37.2198 18.9852 38.9821 22.7407 38.515 26.3737C38.203 28.8006 37.0441 30.7379 35.3252 32.4033C34.2878 33.4083 33.3426 34.4904 33.0023 35.9437C32.8431 36.6234 32.462 36.9606 31.8035 37.1229C31.9266 37.0085 24.7062 39.0316 24.7062 39.0316C24.2494 39.154 23.9758 39.6278 24.0983 40.0846L24.1171 40.1552C24.2395 40.6119 24.7133 40.8856 25.1701 40.7632C25.1701 40.7632 33.4548 38.5369 33.5635 38.5062C34.3307 38.2944 34.7482 37.7482 34.7657 36.9686C34.7919 35.8048 35.2976 34.899 36.1205 34.1257C36.561 33.7117 36.9996 33.294 37.4142 32.8545C40.8362 29.2251 41.4009 23.7183 38.7989 19.4206Z" fill="#FCDA69"/>
</svg>
