<svg width="29" height="29" viewBox="0 0 29 29" fill="none" xmlns="http://www.w3.org/2000/svg">
<path d="M25.6616 6.3902L14.7866 2.7652C14.6006 2.70318 14.3994 2.70318 14.2134 2.7652L3.3384 6.3902C3.15795 6.45036 3.001 6.56577 2.88979 6.72008C2.77857 6.8744 2.71874 7.05979 2.71875 7.25001V16.3125C2.71875 16.5529 2.81423 16.7834 2.98418 16.9533C3.15414 17.1233 3.38465 17.2188 3.625 17.2188C3.86535 17.2188 4.09586 17.1233 4.26582 16.9533C4.43577 16.7834 4.53125 16.5529 4.53125 16.3125V8.50743L8.33637 9.77505C7.3254 11.4083 7.00391 13.3761 7.44251 15.2462C7.8811 17.1163 9.04391 18.7359 10.6756 19.7495C8.63656 20.5492 6.87391 21.9958 5.58477 23.9737C5.51772 24.0734 5.47115 24.1853 5.44776 24.3031C5.42438 24.4209 5.42464 24.5422 5.44853 24.6599C5.47243 24.7776 5.51948 24.8894 5.58696 24.9888C5.65443 25.0881 5.74098 25.1731 5.84158 25.2387C5.94217 25.3043 6.05481 25.3493 6.17293 25.371C6.29106 25.3927 6.41232 25.3907 6.52966 25.3651C6.64701 25.3395 6.7581 25.2909 6.85648 25.222C6.95486 25.1531 7.03857 25.0653 7.10273 24.9638C8.80988 22.3447 11.506 20.8438 14.5 20.8438C17.494 20.8438 20.1901 22.3447 21.8973 24.9638C22.0302 25.1613 22.2355 25.2987 22.4689 25.346C22.7022 25.3934 22.9448 25.347 23.1443 25.217C23.3437 25.0869 23.4839 24.8835 23.5346 24.6509C23.5853 24.4182 23.5424 24.175 23.4152 23.9737C22.1261 21.9958 20.3566 20.5492 18.3244 19.7495C19.9545 18.736 21.1162 17.1174 21.5548 15.2487C21.9933 13.3799 21.6728 11.4135 20.6636 9.78071L25.6616 8.11547C25.8421 8.05535 25.9991 7.93996 26.1103 7.78564C26.2216 7.63132 26.2815 7.44591 26.2815 7.25567C26.2815 7.06543 26.2216 6.88002 26.1103 6.7257C25.9991 6.57138 25.8421 6.45599 25.6616 6.39587V6.3902ZM19.9375 13.5938C19.9377 14.4534 19.7342 15.3008 19.3435 16.0666C18.9528 16.8323 18.3861 17.4945 17.6899 17.9988C16.9937 18.5031 16.1879 18.8352 15.3386 18.9677C14.4892 19.1003 13.6205 19.0296 12.8038 18.7615C11.987 18.4933 11.2455 18.0353 10.64 17.4251C10.0346 16.8148 9.58242 16.0697 9.32068 15.2509C9.05894 14.4321 8.99506 13.5629 9.1343 12.7146C9.27354 11.8663 9.61192 11.0631 10.1217 10.3709L14.2134 11.7303C14.3994 11.7923 14.6006 11.7923 14.7866 11.7303L18.8783 10.3709C19.5668 11.3043 19.938 12.4339 19.9375 13.5938ZM14.5 9.92005L6.49102 7.25001L14.5 4.57997L22.509 7.25001L14.5 9.92005Z" fill="black"/>
</svg>
