<svg width="58" height="58" viewBox="0 0 58 58" fill="none" xmlns="http://www.w3.org/2000/svg">
<rect width="58" height="58" rx="29" fill="#2D274D"/>
<path d="M14.6124 43.3401L25.0372 32.9153M38.1649 28.2795L35.0443 37.6412C34.9945 37.7912 34.9093 37.9271 34.7958 38.0372C34.6823 38.1472 34.5439 38.2283 34.3924 38.2735L15.2627 43.9593C15.0903 44.0105 14.9073 44.0134 14.7334 43.9678C14.5595 43.9222 14.4014 43.8297 14.2764 43.7005C14.1514 43.5713 14.0643 43.4102 14.0244 43.2349C13.9846 43.0596 13.9936 42.8767 14.0505 42.7062L20.2622 24.0745C20.3067 23.9407 20.3794 23.8181 20.4755 23.7149C20.5716 23.6117 20.6888 23.5304 20.8191 23.4766L29.6435 19.8433C29.8229 19.7692 30.0203 19.7498 30.2106 19.7877C30.401 19.8256 30.5759 19.9191 30.7132 20.0562L37.9274 27.272C38.0568 27.4012 38.1476 27.564 38.1895 27.7419C38.2315 27.9199 38.223 28.1061 38.1649 28.2795Z" stroke="#FCDA69" stroke-width="1.5" stroke-linecap="round" stroke-linejoin="round"/>
<path d="M38.3576 27.7028L42.9901 23.0686C43.6043 22.4542 43.9493 21.6211 43.9493 20.7524C43.9493 19.8836 43.6043 19.0505 42.9901 18.4361L39.5173 14.96C39.2131 14.6557 38.8519 14.4142 38.4543 14.2495C38.0567 14.0848 37.6306 14 37.2002 14C36.7699 14 36.3438 14.0848 35.9462 14.2495C35.5486 14.4142 35.1874 14.6557 34.8832 14.96L30.2506 19.5942M28.511 29.4392C28.2827 29.2111 28.0118 29.0301 27.7136 28.9067C27.4154 28.7833 27.0959 28.7198 26.7732 28.7199C26.4505 28.7199 26.1309 28.7836 25.8328 28.9071C25.5347 29.0307 25.2639 29.2118 25.0357 29.44C24.8076 29.6682 24.6267 29.9392 24.5032 30.2374C24.3798 30.5355 24.3163 30.8551 24.3164 31.1778C24.3165 31.5005 24.3801 31.82 24.5037 32.1181C24.6272 32.4162 24.8083 32.6871 25.0366 32.9152C25.4975 33.376 26.1226 33.6347 26.7743 33.6346C27.4261 33.6344 28.051 33.3754 28.5118 32.9144C28.9725 32.4535 29.2313 31.8284 29.2311 31.1766C29.231 30.5249 28.9719 29.8999 28.511 29.4392Z" stroke="#FCDA69" stroke-width="1.5" stroke-linecap="round" stroke-linejoin="round"/>
</svg>
