<svg width="17" height="17" viewBox="0 0 17 17" fill="none" xmlns="http://www.w3.org/2000/svg">
<path d="M12.7503 8.5C12.3253 8.5 12.042 8.78333 12.042 9.20833V13.4583C12.042 13.8833 11.7587 14.1667 11.3337 14.1667H3.54199C3.11699 14.1667 2.83366 13.8833 2.83366 13.4583V5.66666C2.83366 5.24166 3.11699 4.95833 3.54199 4.95833H7.79199C8.21699 4.95833 8.50033 4.675 8.50033 4.25C8.50033 3.825 8.21699 3.54166 7.79199 3.54166H3.54199C2.33783 3.54166 1.41699 4.4625 1.41699 5.66666V13.4583C1.41699 14.6625 2.33783 15.5833 3.54199 15.5833H11.3337C12.5378 15.5833 13.4587 14.6625 13.4587 13.4583V9.20833C13.4587 8.78333 13.1753 8.5 12.7503 8.5Z" fill="#292730"/>
<path d="M15.5125 1.84166C15.4417 1.7 15.3 1.55833 15.1583 1.4875C15.0875 1.41666 14.9458 1.41666 14.875 1.41666H10.625C10.2 1.41666 9.91667 1.7 9.91667 2.125C9.91667 2.55 10.2 2.83333 10.625 2.83333H13.175L6.5875 9.42083C6.30417 9.70416 6.30417 10.1292 6.5875 10.4125C6.72917 10.5542 6.87083 10.625 7.08333 10.625C7.29583 10.625 7.4375 10.5542 7.57917 10.4125L14.1667 3.825V6.375C14.1667 6.8 14.45 7.08333 14.875 7.08333C15.3 7.08333 15.5833 6.8 15.5833 6.375V2.125C15.5833 2.05416 15.5833 1.9125 15.5125 1.84166Z" fill="#464454"/>
</svg>
