<svg width="58" height="58" viewBox="0 0 58 58" fill="none" xmlns="http://www.w3.org/2000/svg">
<path fill-rule="evenodd" clip-rule="evenodd" d="M6.5592 53.1666H4.83301V51.4404L51.4402 4.83328H53.1663V6.55947L6.5592 53.1666ZM16.9165 53.1666H13.4641L53.1665 13.4642V16.9166L16.9165 53.1666ZM23.8211 53.1667H27.2735L53.1664 27.2738V23.8214L23.8211 53.1667ZM37.6305 53.1667H34.1781L53.1662 34.1786V37.6309L37.6305 53.1667ZM44.5356 53.1666H47.9879L53.1665 47.9881V44.5357L44.5356 53.1666ZM4.83301 44.5357V41.0833L41.083 4.83328H44.5354L4.83301 44.5357ZM4.83301 30.7261V34.1785L34.1782 4.83328H30.7259L4.83301 30.7261ZM4.83301 23.8214V20.369L20.3687 4.83328H23.8211L4.83301 23.8214ZM4.83301 10.0119V13.4642L13.464 4.83328H10.0116L4.83301 10.0119Z" fill="#464454"/>
</svg>
