<svg width="56" height="55" viewBox="0 0 56 55" fill="none" xmlns="http://www.w3.org/2000/svg">
<rect width="56" height="55" fill="#FCDA69"/>
<path d="M22.9513 12.913C23.9348 13.2029 24.7918 13.7101 25.5224 14.4348C26.5902 15.2464 27.3629 16.2029 27.8406 17.3043C28.3183 18.4058 28.5572 19.5797 28.5572 20.8261C28.5572 21.058 28.5431 21.2754 28.515 21.4783C28.515 21.6522 28.501 21.8551 28.4729 22.087C27.7423 22.2899 26.9836 22.4058 26.1968 22.4348C25.4381 22.4348 24.6513 22.4348 23.8365 22.4348C23.415 22.4348 23.0075 22.4203 22.6141 22.3913C22.2488 22.3333 21.9538 22.2174 21.729 22.0435C21.8414 21.9275 21.8976 21.7681 21.8976 21.5652C21.8976 20.8116 21.6026 20.2174 21.0125 19.7826C20.4224 19.3478 19.8042 19.1304 19.1579 19.1304C18.9331 19.1304 18.6802 19.1449 18.3992 19.1739C18.1182 19.2029 17.9215 19.2754 17.8092 19.3913L17.9777 19.4783C17.3877 19.5652 16.9802 19.8116 16.7554 20.2174C16.5306 20.6232 16.4182 21.0725 16.4182 21.5652C16.4182 22.3478 16.629 22.913 17.0505 23.2609C17.5001 23.6087 18.0199 23.8551 18.61 24C19.2001 24.1449 19.8042 24.2609 20.4224 24.3478C21.0687 24.4058 21.5885 24.5507 21.9819 24.7826C22.8249 25.3043 23.6117 25.8116 24.3423 26.3043C25.1009 26.7681 25.7613 27.3188 26.3233 27.9565C26.8852 28.5942 27.3208 29.3768 27.6299 30.3043C27.9671 31.2319 28.1357 32.3913 28.1357 33.7826C28.1357 35.5217 27.7844 37.1015 27.0819 38.5217C26.4076 39.942 25.3538 41 23.9208 41.6957C24.0613 41.4928 24.2439 41.3333 24.4687 41.2174C24.6935 41.0725 24.8761 40.8841 25.0166 40.6522H24.553C24.3844 40.7681 24.2158 40.8841 24.0472 41C23.8786 41.087 23.7241 41.1594 23.5836 41.2174L22.6984 41.6087C22.1365 41.8696 21.5604 42.2174 20.9703 42.6522H20.8017C20.6331 42.6522 20.4364 42.6812 20.2116 42.7391C20.0149 42.7681 19.8323 42.7826 19.6637 42.7826C19.5232 42.7826 19.4389 42.7681 19.4108 42.7391C19.3265 42.7681 19.1579 42.7826 18.905 42.7826H18.4414C17.486 42.7826 16.6149 42.7246 15.8281 42.6087C15.0414 42.4638 14.1843 42.2754 13.2571 42.0435C12.8918 41.9275 12.5686 41.7391 12.2876 41.4783C12.0347 41.2174 11.7959 40.9275 11.5711 40.6087C11.3744 40.2899 11.1637 39.971 10.9389 39.6522C10.7422 39.3044 10.5314 39 10.3066 38.7391C9.85703 37.9855 9.53389 37.1739 9.33719 36.3044C9.1686 35.4348 9.0562 34.5362 9 33.6087L9.25289 33.3913C9.87108 33.4493 10.4752 33.4928 11.0653 33.5217C11.6835 33.5507 12.2876 33.5652 12.8777 33.5652C13.2711 33.5652 13.6645 33.5507 14.0579 33.5217C14.4794 33.4928 14.8868 33.4493 15.2802 33.3913C15.4769 33.4493 15.6174 33.5507 15.7017 33.6957C15.786 33.8406 15.8422 34.0145 15.8703 34.2174C15.9265 34.3913 15.9686 34.5652 15.9967 34.7391C16.0529 34.913 16.1513 35.058 16.2918 35.1739C16.8819 36.0435 17.6546 36.4783 18.61 36.4783C19.453 36.4783 20.1414 36.2029 20.6753 35.6522C21.2092 35.0725 21.4761 34.3188 21.4761 33.3913C21.4761 33.1304 21.3918 32.8696 21.2232 32.6087C20.8579 31.942 20.3802 31.4493 19.7902 31.1304C19.2282 30.7826 18.624 30.5217 17.9777 30.3478C17.3315 30.1739 16.6571 30.029 15.9546 29.913C15.2802 29.7971 14.648 29.6232 14.0579 29.3913C13.3273 29.1015 12.681 28.7101 12.119 28.2174C11.5851 27.6957 11.1356 27.1159 10.7703 26.4783C10.405 25.8116 10.138 25.1159 9.96943 24.3913C9.80083 23.6377 9.71653 22.8696 9.71653 22.087C9.71653 20.8696 9.85703 19.7246 10.138 18.6522C10.4471 17.5507 10.9529 16.5362 11.6554 15.6087C12.6389 14.6232 13.8893 13.8551 15.4067 13.3043C16.924 12.7246 18.4273 12.4348 19.9166 12.4348C20.9563 12.4348 21.9679 12.5942 22.9513 12.913ZM26.7869 21.7391C26.815 21.7101 26.8571 21.6957 26.9133 21.6957L27.3348 21.4783C27.3067 21.1594 27.2927 20.8551 27.2927 20.5652C27.3208 20.2464 27.3067 19.8841 27.2505 19.4783C27.11 18.6087 26.7869 17.8551 26.2811 17.2174C25.7753 16.5507 25.1852 15.9855 24.5108 15.5217C23.8365 15.058 23.1059 14.6667 22.3191 14.3478C21.5323 14.029 20.7736 13.7536 20.0431 13.5217C19.8183 13.4638 19.6637 13.4348 19.5794 13.4348H19.1158C18.2447 13.4348 17.3455 13.5652 16.4182 13.8261C15.491 14.087 14.8166 14.4348 14.3951 14.8696C14.086 14.8696 13.8331 15 13.6364 15.2609C13.4397 15.4928 13.2852 15.6087 13.1728 15.6087C13.1166 15.6087 13.0885 15.5797 13.0885 15.5217C13.0885 15.4058 13.2009 15.3043 13.4256 15.2174C13.6785 15.1014 13.8893 14.9275 14.0579 14.6957C13.8331 14.7536 13.5942 14.8841 13.3414 15.087C13.1166 15.2899 12.9058 15.5072 12.7091 15.7391C12.5124 15.971 12.3438 16.2029 12.2033 16.4348C12.0909 16.6377 12.0347 16.7826 12.0347 16.8696C12.0347 16.7826 12.119 16.6522 12.2876 16.4783C12.4843 16.3043 12.6529 16.1739 12.7934 16.087L12.8777 16.3478C12.2314 16.9565 11.7818 17.6667 11.5289 18.4783C11.276 19.2609 11.0513 19.9275 10.8546 20.4783C10.686 20.971 10.5876 21.3188 10.5595 21.5217C10.5314 21.7246 10.5174 22.1159 10.5174 22.6957C10.5174 23.6232 10.7422 24.5072 11.1918 25.3478C11.6413 26.1884 12.2595 26.942 13.0463 27.6087C13.0463 27.7536 13.1025 27.8986 13.2149 28.0435C13.3554 28.1884 13.4959 28.2899 13.6364 28.3478C14.3951 28.5797 15.1678 28.7826 15.9546 28.9565C16.7414 29.1014 17.5001 29.3043 18.2306 29.5652C18.9893 29.8261 19.6918 30.1739 20.3381 30.6087C20.9844 31.0145 21.5323 31.5942 21.9819 32.3478C22.1505 32.6957 22.2348 33.058 22.2348 33.4348C22.2348 33.8696 22.1365 34.3043 21.9398 34.7391C21.7431 35.1449 21.4761 35.5217 21.1389 35.8696C20.8017 36.1884 20.4083 36.4493 19.9588 36.6522C19.5092 36.8551 19.0315 36.9565 18.5257 36.9565C18.0199 36.9565 17.5984 36.8841 17.2612 36.7391C16.924 36.5942 16.629 36.4058 16.3761 36.1739C16.1513 35.913 15.9546 35.6377 15.786 35.3478C15.6174 35.058 15.4488 34.7826 15.2802 34.5217C14.943 34.4058 14.5075 34.3478 13.9736 34.3478C13.4116 34.3478 12.8637 34.3913 12.3298 34.4783C11.824 34.5652 11.3041 34.6087 10.7703 34.6087H10.3909C10.2223 34.6087 10.1099 34.5942 10.0537 34.5652C10.0818 34.7971 10.124 35.087 10.1802 35.4348C10.2364 35.7826 10.2926 36.1159 10.3488 36.4348C10.4331 36.7536 10.5174 37.029 10.6017 37.2609C10.686 37.4928 10.7562 37.6087 10.8124 37.6087C10.981 38.1304 11.262 38.6377 11.6554 39.1304C12.0488 39.5942 12.4984 40.0145 13.0042 40.3913C13.5099 40.7391 14.0298 41.029 14.5637 41.2609C15.1257 41.4928 15.6455 41.6087 16.1232 41.6087C16.3199 41.6087 16.4744 41.5507 16.5868 41.4348C16.6711 41.5217 16.8116 41.5652 17.0083 41.5652H17.2191C17.472 41.5652 17.7389 41.6232 18.0199 41.7391C18.3009 41.8261 18.61 41.8696 18.9472 41.8696C20.5207 41.8696 21.9257 41.4058 23.1621 40.4783C24.3985 39.5507 25.4662 38.4638 26.3654 37.2174C26.6183 36.6377 26.815 36.0145 26.9555 35.3478C27.1241 34.6522 27.2084 33.942 27.2084 33.2174C27.2084 32.058 27.0398 31.1015 26.7026 30.3478C26.3935 29.5942 25.958 28.9565 25.396 28.4348C24.8621 27.913 24.2299 27.4783 23.4993 27.1304C22.7687 26.7826 22.01 26.4348 21.2232 26.087L17.1348 24.3043C16.6009 24.0435 16.2637 23.6377 16.1232 23.087C15.9827 22.5362 15.9124 22.0145 15.9124 21.5217C15.9124 21.1449 15.9546 20.7536 16.0389 20.3478C16.1232 19.913 16.2637 19.5362 16.4604 19.2174C16.6852 18.8696 16.9802 18.5942 17.3455 18.3913C17.7108 18.1594 18.1744 18.0435 18.7364 18.0435C19.2703 18.0435 19.748 18.1594 20.1695 18.3913C20.6191 18.5942 21.0125 18.8696 21.3497 19.2174C21.6869 19.5362 21.9679 19.913 22.1927 20.3478C22.4174 20.7826 22.586 21.2174 22.6984 21.6522C23.0637 21.7391 23.4993 21.7826 24.0051 21.7826C24.3142 21.7826 24.6373 21.7536 24.9745 21.6957C25.3117 21.6087 25.6208 21.5652 25.9018 21.5652C26.0423 21.5652 26.1828 21.5942 26.3233 21.6522C26.4638 21.7101 26.6043 21.7391 26.7447 21.7391H26.7869Z" fill="black"/>
<path d="M45.9041 38.9565C46.0446 39.8261 46.2554 40.5942 46.5364 41.2609C46.5926 41.5217 46.6628 41.7681 46.7471 42C46.8314 42.2319 46.9157 42.4783 47 42.7391C46.9438 42.913 46.8876 43 46.8314 43C46.719 43 46.4942 42.9855 46.157 42.9565C45.8198 42.9275 45.1314 42.8841 44.0917 42.8261C43.4735 42.7971 42.9396 42.7826 42.4901 42.7826C42.0405 42.7826 41.6752 42.7391 41.3942 42.6522C41.2256 42.1884 41.0429 41.6667 40.8462 41.087C40.6776 40.5072 40.495 39.9275 40.2983 39.3478C40.1297 38.7391 39.9471 38.1594 39.7504 37.6087C39.5818 37.029 39.4132 36.5217 39.2446 36.087L39.076 35.913C38.7388 35.942 38.3875 35.9565 38.0223 35.9565C37.6851 35.9275 37.3619 35.9855 37.0528 36.1304C37.3338 36.2174 37.6008 36.2754 37.8537 36.3044C38.1346 36.3044 38.4156 36.3333 38.6966 36.3913C38.5842 36.4203 38.4718 36.4348 38.3594 36.4348C38.3032 36.4348 38.2751 36.4493 38.2751 36.4783C38.1065 36.4783 37.9239 36.4638 37.7272 36.4348C37.5586 36.3768 37.39 36.3478 37.2214 36.3478C36.828 36.3478 36.5751 36.4783 36.4627 36.7391C36.3784 37.1449 36.2801 37.6087 36.1677 38.1304C36.0553 38.6522 35.9289 39.1884 35.7884 39.7391C35.676 40.2609 35.5636 40.7826 35.4512 41.3044C35.3388 41.8261 35.2404 42.2754 35.1561 42.6522C35.0156 42.7971 34.833 42.8696 34.6082 42.8696C34.4677 42.8696 34.3131 42.8406 34.1445 42.7826C33.9759 42.7536 33.8214 42.7391 33.6809 42.7391C33.5123 42.7391 33.414 42.7536 33.3859 42.7826L33.3016 42.6957C32.5991 42.7246 31.8825 42.7391 31.152 42.7391C30.4214 42.7101 29.7189 42.7391 29.0445 42.8261C29.0164 42.7681 28.9743 42.7391 28.9181 42.7391C28.8619 42.7391 28.8338 42.7101 28.8338 42.6522C28.8338 42.5942 28.8338 42.5797 28.8338 42.6087C28.8619 42.6377 28.904 42.5652 28.9602 42.3913L29.1288 42.1304C29.0445 42.0435 29.0024 41.971 29.0024 41.913C29.0024 41.8261 29.0445 41.7391 29.1288 41.6522C29.2131 41.5652 29.2693 41.4638 29.2974 41.3478C29.5222 39.9565 29.7751 38.4638 30.0561 36.8696C30.3652 35.2754 30.6181 33.7826 30.8148 32.3913C30.7305 32.3913 30.6181 32.7101 30.4776 33.3478C30.3371 33.9565 30.1825 34.6957 30.0139 35.5652C29.8453 36.4348 29.6627 37.3478 29.466 38.3043C29.2974 39.2319 29.1288 40.0145 28.9602 40.6522C29.4379 38.1015 29.9015 35.4493 30.3511 32.6957C30.8007 29.913 31.3346 27.2464 31.9528 24.6957C31.9528 24.8986 31.9387 25.0435 31.9106 25.1304V25.6522C32.304 24 32.6834 22.3768 33.0487 20.7826C33.4421 19.1884 33.7933 17.5652 34.1024 15.913C34.0462 15.971 34.004 16.058 33.9759 16.1739C33.9478 16.2609 33.9057 16.3478 33.8495 16.4348C33.8776 16.1159 33.9619 15.7536 34.1024 15.3478C34.2429 14.913 34.4115 14.4928 34.6082 14.087C34.8049 13.6812 35.0156 13.3043 35.2404 12.9565C35.4933 12.6087 35.7462 12.3478 35.9991 12.1739H36.7156C37.8677 12.1739 38.6826 12.1449 39.1603 12.087C39.6661 12.029 40.0876 12 40.4247 12C40.7619 13.3913 41.0851 14.7536 41.3942 16.087C41.7033 17.3913 41.9702 18.7391 42.195 20.1304C42.195 20.4203 42.2793 20.6667 42.4479 20.8696C42.6165 21.0435 42.7008 21.2464 42.7008 21.4783C42.6727 21.5072 42.6586 21.5362 42.6586 21.5652C42.6586 21.5942 42.6446 21.6232 42.6165 21.6522C42.6165 21.6812 42.6165 21.7246 42.6165 21.7826C42.8694 22.6812 43.0661 23.6087 43.2066 24.5652C43.3471 25.4928 43.5719 26.3913 43.881 27.2609C44.0215 28.1304 44.1901 29.029 44.3868 29.9565C44.6116 30.8551 44.7661 31.7391 44.8504 32.6087C45.0752 33.0725 45.1876 33.5942 45.1876 34.1739C45.1876 34.7246 45.2719 35.2464 45.4405 35.7391C45.581 35.7971 45.6512 35.8841 45.6512 36C45.6512 36.1159 45.6653 36.2319 45.6934 36.3478C45.581 36.3478 45.5248 36.4058 45.5248 36.5217C45.6653 37.2464 45.7917 38.058 45.9041 38.9565ZM44.6397 41.9565C44.9768 41.9565 45.3421 41.942 45.7355 41.913H46.0727L45.862 40.6087C45.7215 39.7101 45.5248 38.8261 45.2719 37.9565C45.0471 37.087 44.8082 36.2754 44.5554 35.5217C44.3306 34.7681 44.1339 34.1015 43.9653 33.5217C43.7967 32.942 43.7124 32.4928 43.7124 32.1739V32.0435C43.7124 31.8406 43.6843 31.6087 43.6281 31.3478C43.5719 31.087 43.4876 30.7391 43.3752 30.3043C43.2628 29.8406 43.1082 29.2754 42.9115 28.6087C42.7148 27.913 42.4901 27.0145 42.2372 25.913C42.2091 25.8551 42.195 25.8116 42.195 25.7826C42.195 25.7246 42.181 25.6667 42.1529 25.6087C42.2091 25.6087 42.5884 26.6667 43.2909 28.7826C43.3471 28.8696 43.4033 28.971 43.4595 29.087C43.5438 29.1739 43.5859 29.2754 43.5859 29.3913V29.5217H43.5016C43.5578 29.6667 43.5859 29.7971 43.5859 29.913C43.614 30.029 43.6562 30.1449 43.7124 30.2609C43.7405 30.2609 43.7826 30.2319 43.8388 30.1739C43.7826 30.1159 43.7545 30.0725 43.7545 30.0435C43.7545 29.9855 43.7826 29.942 43.8388 29.913C43.895 29.8841 43.9231 29.8406 43.9231 29.7826C43.6983 28.942 43.5157 28.058 43.3752 27.1304C43.2347 26.1739 43.038 25.3043 42.7851 24.5217V24.2609C42.7851 23.5942 42.6305 22.942 42.3215 22.3043C42.0405 21.6377 41.8719 21 41.8157 20.3913V20.5652C41.8157 20.5942 41.8438 20.7246 41.9 20.9565C41.8157 21.1304 41.7735 21.2754 41.7735 21.3913C41.7735 21.6232 41.8157 21.8406 41.9 22.0435C41.9843 22.2464 42.0264 22.4493 42.0264 22.6522C42.0264 22.7391 41.9983 22.7826 41.9421 22.7826L41.9 22.6522C41.9 22.5942 41.8859 22.5652 41.8578 22.5652L41.7735 22.8696C41.7173 21.942 41.5347 20.8116 41.2256 19.4783C40.9165 18.1159 40.6214 16.6522 40.3404 15.087L40.3826 15.1304L40.1719 13.5217C40.1719 13.2029 40.0454 13.0435 39.7925 13.0435C39.7082 13.0435 39.6099 13.058 39.4975 13.087C39.4132 13.087 39.3148 13.087 39.2024 13.087C39.0619 13.087 38.9636 13.058 38.9074 13C38.9917 12.913 39.0338 12.8551 39.0338 12.8261C38.8652 12.8261 38.514 12.8261 37.9801 12.8261C37.4743 12.8261 36.7718 12.8406 35.8727 12.8696C35.7884 13.5652 35.676 14.1884 35.5355 14.7391C35.395 15.2609 35.2264 15.8261 35.0297 16.4348C34.833 17.0435 34.6784 17.6522 34.566 18.2609C34.4536 18.8696 34.3412 19.4783 34.2288 20.087C34.1164 20.6957 33.99 21.2899 33.8495 21.8696C33.709 22.4493 33.5123 23.0145 33.2594 23.5652H33.3859C33.3297 23.971 33.2735 24.4058 33.2173 24.8696C33.1611 25.3043 33.0206 25.6812 32.7958 26C32.852 26.2899 32.8801 26.4638 32.8801 26.5217C32.8801 26.6087 32.8379 26.8116 32.7536 27.1304C32.6693 27.4203 32.571 27.7536 32.4586 28.1304C32.3743 28.5072 32.2759 28.8696 32.1635 29.2174C32.0792 29.5362 32.023 29.7681 31.9949 29.913C31.9106 30.3188 31.8263 30.7536 31.742 31.2174C31.6577 31.6522 31.5453 32.0145 31.4049 32.3043C31.4049 32.3623 31.4049 32.4203 31.4049 32.4783C31.433 32.5362 31.447 32.5797 31.447 32.6087C31.447 32.6667 31.4611 32.6957 31.4892 32.6957C31.4892 32.9275 31.447 33.1594 31.3627 33.3913C31.2784 33.5942 31.2363 33.7971 31.2363 34V34.1304C31.3487 33.9855 31.4049 33.8406 31.4049 33.6957C31.4049 33.5217 31.4892 33.4058 31.6577 33.3478C31.6296 34.0725 31.5313 34.8116 31.3627 35.5652C31.2222 36.3188 31.0536 37.087 30.8569 37.8696C30.6602 38.6232 30.4635 39.3768 30.2668 40.1304C30.0701 40.8551 29.9015 41.5652 29.761 42.2609L29.9296 42.3478C30.7445 42.2029 31.5313 42.0725 32.29 41.9565C33.0768 41.8116 33.8495 41.6522 34.6082 41.4783C34.8049 41.1594 34.9735 40.7536 35.114 40.2609C35.2545 39.7681 35.3809 39.2609 35.4933 38.7391C35.6057 38.2174 35.7041 37.7101 35.7884 37.2174C35.9008 36.6957 36.0272 36.2609 36.1677 35.913L35.9569 35.5652C36.4346 35.2754 37.0107 35.1449 37.6851 35.1739C38.3594 35.2029 38.9917 35.1884 39.5818 35.1304C39.638 35.1884 39.7223 35.2609 39.8347 35.3478C39.9752 35.4058 40.0454 35.5072 40.0454 35.6522L39.9611 35.8261C40.1297 36.2319 40.2843 36.6957 40.4247 37.2174C40.5652 37.7391 40.7057 38.2754 40.8462 38.8261C40.9867 39.3768 41.1413 39.8986 41.3099 40.3913C41.4785 40.8841 41.6752 41.3044 41.9 41.6522H41.7314V42C41.7876 41.971 41.8438 41.9565 41.9 41.9565C41.9843 41.9275 42.0545 41.8841 42.1107 41.8261C42.2231 41.913 42.771 41.9565 43.7545 41.9565C44.0355 41.9565 44.3306 41.9565 44.6397 41.9565ZM37.8958 21.2609C38.0363 21.2609 38.1487 21.4928 38.233 21.9565C38.6826 23.8986 38.9776 25.5507 39.1181 26.913C39.2586 28.2754 39.4553 29.3913 39.7082 30.2609L39.5818 30.3478C39.4975 30.3478 39.4132 30.3623 39.3289 30.3913C39.2446 30.3913 39.1603 30.3913 39.076 30.3913C38.7669 30.3913 38.4156 30.3768 38.0223 30.3478C37.6289 30.3188 37.2776 30.3043 36.9685 30.3043H36.4206C36.3082 30.3043 36.252 30.2029 36.252 30C36.252 29.8551 36.266 29.7681 36.2941 29.7391C36.3503 29.6812 36.3784 29.6232 36.3784 29.5652V29.3913C36.3784 29.3043 36.3925 29.2464 36.4206 29.2174L36.4627 29.2609C36.5189 29.029 36.5611 28.5072 36.5892 27.6957C36.6454 26.8841 36.828 25.8261 37.1371 24.5217C37.3057 23.7971 37.39 23.2754 37.39 22.9565V22.7391C37.39 22.5942 37.4884 22.4203 37.6851 22.2174C37.657 22.1884 37.6429 22.1014 37.6429 21.9565C37.6429 21.8406 37.657 21.6957 37.6851 21.5217C37.7413 21.3478 37.8115 21.2609 37.8958 21.2609ZM38.6123 24.5652C38.4999 23.8696 38.3173 23.3043 38.0644 22.8696V22.6522C38.0644 22.5072 38.0223 22.4058 37.938 22.3478C37.8818 22.4928 37.7975 22.6377 37.6851 22.7826C37.6008 22.9275 37.5586 23.1159 37.5586 23.3478V23.6957C37.5586 23.8696 37.5165 24.2464 37.4322 24.8261C37.376 25.3768 37.2917 25.971 37.1793 26.6087C37.095 27.2464 37.0107 27.8551 36.9264 28.4348C36.8421 28.9855 36.7859 29.3478 36.7578 29.5217L36.6735 29.4348L36.5892 29.6087L36.6735 29.5652L36.8421 30.0435H39.2446L39.4132 29.913C39.2727 29.6522 39.1743 29.2319 39.1181 28.6522C39.0619 28.0435 38.9917 27.3913 38.9074 26.6957C38.8512 25.971 38.7528 25.2609 38.6123 24.5652ZM31.1941 29.2174C31.0536 30.2319 30.871 31.2464 30.6462 32.2609L30.8569 32.2174C31.0817 31.2319 31.2784 30.2174 31.447 29.1739C31.6156 28.1014 31.7701 27.087 31.9106 26.1304C31.6015 27.1449 31.3627 28.1739 31.1941 29.2174ZM28.9181 40.8261C28.9181 40.8841 28.904 40.942 28.8759 41C28.904 40.942 28.9181 40.8841 28.9181 40.8261C28.9181 40.7681 28.9321 40.7102 28.9602 40.6522C28.9321 40.7102 28.9181 40.7681 28.9181 40.8261Z" fill="black"/>
</svg>
