<svg width="160" height="22" viewBox="0 0 160 22" fill="none" xmlns="http://www.w3.org/2000/svg">
<path d="M8.10116 22C6.47512 22 5.05234 21.7364 3.83281 21.2091C2.61328 20.6622 1.66476 19.8908 0.987238 18.8948C0.329079 17.8988 0 16.7466 0 15.4381V15.028C0 14.8913 0.0387152 14.7838 0.116146 14.7057C0.193576 14.6276 0.300043 14.5885 0.435546 14.5885H4.93619C5.0717 14.5885 5.17816 14.6276 5.25559 14.7057C5.33302 14.7838 5.37174 14.8913 5.37174 15.028V15.2037C5.37174 15.7506 5.65242 16.2388 6.2138 16.6684C6.79452 17.0786 7.55915 17.2836 8.50767 17.2836C9.2239 17.2836 9.73688 17.1372 10.0466 16.8442C10.3563 16.5317 10.5112 16.19 10.5112 15.8189C10.5112 15.3893 10.3176 15.067 9.93046 14.8522C9.5433 14.6374 8.83675 14.3737 7.8108 14.0613L6.96874 13.8269C5.05234 13.241 3.44566 12.4598 2.1487 11.4834C0.851735 10.5069 0.203255 9.09099 0.203255 7.23569C0.203255 6.00533 0.532334 4.92144 1.19049 3.98402C1.84865 3.02707 2.74878 2.29472 3.89088 1.78695C5.05234 1.27918 6.3493 1.0253 7.78176 1.0253C9.29166 1.0253 10.6564 1.30848 11.8759 1.87483C13.1148 2.44119 14.0827 3.2419 14.7795 4.27697C15.4958 5.31203 15.8539 6.49356 15.8539 7.82157V8.08522C15.8539 8.22193 15.8152 8.32934 15.7377 8.40746C15.6603 8.48558 15.5538 8.52463 15.4183 8.52463H10.9177C10.7822 8.52463 10.6757 8.48558 10.5983 8.40746C10.5209 8.32934 10.4821 8.22193 10.4821 8.08522V8.05593C10.4821 7.47004 10.2208 6.94274 9.69817 6.47404C9.17551 5.9858 8.46896 5.74168 7.57851 5.74168C6.95906 5.74168 6.46544 5.86862 6.09765 6.1225C5.74921 6.37639 5.57499 6.72792 5.57499 7.1771C5.57499 7.52863 5.70082 7.83134 5.95247 8.08522C6.22347 8.31957 6.62998 8.55393 7.172 8.78828C7.71401 9.00311 8.54639 9.28629 9.66913 9.63782C9.82399 9.69641 10.5015 9.91123 11.7017 10.2823C12.9212 10.6338 13.9375 11.2881 14.7505 12.245C15.5635 13.1824 15.97 14.3249 15.97 15.6724C15.97 16.9809 15.641 18.1136 14.9828 19.0706C14.3246 20.008 13.4051 20.7306 12.2243 21.2383C11.0435 21.7461 9.66913 22 8.10116 22Z" fill="black"/>
<path d="M24.0349 6.29827C25.3512 6.29827 26.5611 6.52286 27.6645 6.97204C28.7678 7.42122 29.6389 8.0364 30.2777 8.81758C30.9165 9.59876 31.2359 10.4483 31.2359 11.3662V21.3262C31.2359 21.4629 31.1972 21.5704 31.1198 21.6485C31.0424 21.7266 30.9359 21.7656 30.8004 21.7656H26.2126C26.0771 21.7656 25.9707 21.7266 25.8932 21.6485C25.8158 21.5704 25.7771 21.4629 25.7771 21.3262V20.3009C25.7771 20.2228 25.7577 20.1838 25.719 20.1838C25.6997 20.1642 25.6706 20.1838 25.6319 20.2423C25.3028 20.8478 24.8479 21.2969 24.2672 21.5899C23.6865 21.8633 22.9218 22 21.9733 22C20.386 22 19.1374 21.6387 18.2276 20.9161C17.3178 20.174 16.8629 19.0999 16.8629 17.6937C16.8629 16.2095 17.3759 15.067 18.4018 14.2663C19.4471 13.4656 20.957 13.0652 22.9315 13.0652H25.6319C25.7287 13.0652 25.7771 13.0164 25.7771 12.9188V12.3915C25.7771 11.9814 25.6222 11.6494 25.3125 11.3955C25.0221 11.1416 24.6253 11.0146 24.122 11.0146C23.7736 11.0146 23.4639 11.0732 23.1928 11.1904C22.9218 11.3076 22.7283 11.4638 22.6121 11.6591C22.5347 11.7958 22.4573 11.8935 22.3798 11.9521C22.3218 11.9911 22.2346 12.0009 22.1185 11.9814L17.4436 11.3955C17.1726 11.3564 17.0371 11.2392 17.0371 11.0439C17.1146 10.1651 17.463 9.3644 18.0824 8.64181C18.7019 7.91922 19.5246 7.35286 20.5505 6.94274C21.5958 6.51309 22.7573 6.29827 24.0349 6.29827ZM23.6574 18.1917C24.2769 18.1917 24.7802 18.0257 25.1673 17.6937C25.5738 17.3617 25.7771 16.9126 25.7771 16.3462V15.9654C25.7771 15.8677 25.7287 15.8189 25.6319 15.8189H24.1801C22.9606 15.8189 22.3508 16.2193 22.3508 17.02C22.3508 17.3715 22.4573 17.6547 22.6702 17.8695C22.9025 18.0843 23.2316 18.1917 23.6574 18.1917Z" fill="black"/>
<path d="M42.2128 6.29827C43.1807 6.29827 44.0518 6.51309 44.8261 6.94274C45.6004 7.37239 46.2102 8.0071 46.6554 8.84687C47.12 9.66711 47.3523 10.6436 47.3523 11.7763V21.3262C47.3523 21.4629 47.3136 21.5704 47.2361 21.6485C47.1587 21.7266 47.0522 21.7656 46.9167 21.7656H42.329C42.1935 21.7656 42.087 21.7266 42.0096 21.6485C41.9321 21.5704 41.8934 21.4629 41.8934 21.3262V12.9774C41.8934 12.3915 41.7386 11.9228 41.4289 11.5712C41.1385 11.2002 40.7513 11.0146 40.2674 11.0146C39.7641 11.0146 39.3576 11.2002 39.0479 11.5712C38.7575 11.9228 38.6123 12.3915 38.6123 12.9774V21.3262C38.6123 21.4629 38.5736 21.5704 38.4962 21.6485C38.4187 21.7266 38.3123 21.7656 38.1768 21.7656H33.589C33.4535 21.7656 33.347 21.7266 33.2696 21.6485C33.1922 21.5704 33.1535 21.4629 33.1535 21.3262V6.97204C33.1535 6.83533 33.1922 6.72792 33.2696 6.6498C33.347 6.57168 33.4535 6.53262 33.589 6.53262H38.1768C38.3123 6.53262 38.4187 6.57168 38.4962 6.6498C38.5736 6.72792 38.6123 6.83533 38.6123 6.97204V8.02663C38.6123 8.10475 38.6317 8.15357 38.6704 8.1731C38.7091 8.19263 38.7381 8.1731 38.7575 8.11451C39.4931 6.90369 40.6449 6.29827 42.2128 6.29827Z" fill="black"/>
<path d="M59.0469 10.4874C59.0469 10.6241 59.0082 10.7315 58.9308 10.8096C58.8534 10.8877 58.7469 10.9268 58.6114 10.9268H56.2014C56.1046 10.9268 56.0562 10.9756 56.0562 11.0732V15.6724C56.0562 16.6489 56.4046 17.1372 57.1015 17.1372H58.1758C58.3113 17.1372 58.4178 17.1762 58.4952 17.2543C58.5727 17.3324 58.6114 17.4399 58.6114 17.5766V21.3262C58.6114 21.5996 58.4662 21.7559 58.1758 21.7949C57.4209 21.8535 56.695 21.8828 55.9981 21.8828C54.2366 21.8828 52.9396 21.6094 52.1072 21.0626C51.2748 20.5158 50.849 19.4807 50.8296 17.9574V11.0732C50.8296 10.9756 50.7812 10.9268 50.6844 10.9268H49.1165C48.981 10.9268 48.8745 10.8877 48.7971 10.8096C48.7196 10.7315 48.6809 10.6241 48.6809 10.4874V6.97204C48.6809 6.83533 48.7196 6.72792 48.7971 6.6498C48.8745 6.57168 48.981 6.53262 49.1165 6.53262H50.6844C50.7812 6.53262 50.8296 6.4838 50.8296 6.38615V2.87084C50.8296 2.73413 50.8683 2.62672 50.9458 2.5486C51.0232 2.47048 51.1297 2.43143 51.2652 2.43143H55.6206C55.7561 2.43143 55.8626 2.47048 55.94 2.5486C56.0175 2.62672 56.0562 2.73413 56.0562 2.87084V6.38615C56.0562 6.4838 56.1046 6.53262 56.2014 6.53262H58.6114C58.7469 6.53262 58.8534 6.57168 58.9308 6.6498C59.0082 6.72792 59.0469 6.83533 59.0469 6.97204V10.4874Z" fill="black"/>
<path d="M63.2754 5.50732C62.4817 5.50732 61.8235 5.25344 61.3009 4.74567C60.7976 4.21838 60.5459 3.55437 60.5459 2.75366C60.5459 1.93342 60.7976 1.26942 61.3009 0.761652C61.8235 0.253884 62.4817 0 63.2754 0C64.069 0 64.7175 0.253884 65.2208 0.761652C65.7435 1.26942 66.0048 1.93342 66.0048 2.75366C66.0048 3.53484 65.7435 4.18908 65.2208 4.71638C64.7175 5.24368 64.069 5.50732 63.2754 5.50732ZM60.9524 21.7656C60.8169 21.7656 60.7105 21.7266 60.633 21.6485C60.5556 21.5704 60.5169 21.4629 60.5169 21.3262V6.97204C60.5169 6.83533 60.5556 6.72792 60.633 6.6498C60.7105 6.57168 60.8169 6.53262 60.9524 6.53262H65.5402C65.6757 6.53262 65.7822 6.57168 65.8596 6.6498C65.937 6.72792 65.9757 6.83533 65.9757 6.97204V21.3262C65.9757 21.4629 65.937 21.5704 65.8596 21.6485C65.7822 21.7266 65.6757 21.7656 65.5402 21.7656H60.9524Z" fill="black"/>
<path d="M81.6527 21.7656C81.3817 21.7656 81.2171 21.6387 81.1591 21.3848L80.5203 19.0999C80.4816 19.0217 80.4332 18.9827 80.3751 18.9827H74.2194C74.1613 18.9827 74.1129 19.0217 74.0742 19.0999L73.4354 21.3848C73.3773 21.6387 73.2128 21.7656 72.9418 21.7656H67.9765C67.6281 21.7656 67.5023 21.5996 67.5991 21.2676L73.7258 1.61119C73.8032 1.37683 73.9677 1.25965 74.2194 1.25965H80.3751C80.6267 1.25965 80.7913 1.37683 80.8687 1.61119L86.9954 21.2676C87.0148 21.3067 87.0244 21.3653 87.0244 21.4434C87.0244 21.6582 86.8889 21.7656 86.6179 21.7656H81.6527ZM75.3518 14.5885C75.3324 14.7057 75.3711 14.7643 75.4679 14.7643H79.0975C79.2136 14.7643 79.2524 14.7057 79.2136 14.5885L77.3553 8.02663C77.3359 7.96804 77.3069 7.93875 77.2682 7.93875C77.2295 7.93875 77.2004 7.96804 77.1811 8.02663L75.3518 14.5885Z" fill="black"/>
<path d="M95.2805 22C93.6351 22 92.2027 21.5996 90.9831 20.7989C89.7636 19.9787 88.8732 18.846 88.3118 17.4008C87.9246 16.4048 87.7311 15.2916 87.7311 14.0613C87.7311 12.8504 87.9246 11.747 88.3118 10.751C88.8538 9.3644 89.7443 8.28052 90.9831 7.49934C92.222 6.69863 93.6545 6.29827 95.2805 6.29827C96.9259 6.29827 98.3778 6.71815 99.636 7.55792C100.914 8.37816 101.775 9.41323 102.22 10.6631C102.356 11.0146 102.443 11.3857 102.482 11.7763V11.8642C102.482 12.0595 102.356 12.1864 102.104 12.245L97.6034 12.9774H97.5163C97.2647 12.9774 97.1292 12.8504 97.1098 12.5965L96.9937 12.1864C96.8969 11.8544 96.684 11.581 96.3549 11.3662C96.0452 11.1318 95.6774 11.0146 95.2515 11.0146C94.4772 11.0146 93.9255 11.3662 93.5964 12.0692C93.3641 12.5575 93.248 13.2312 93.248 14.0905C93.248 14.8913 93.3544 15.565 93.5674 16.1119C93.8965 16.893 94.4578 17.2836 95.2515 17.2836C96.1032 17.2836 96.684 16.8344 96.9937 15.9361L97.0227 15.8189C97.0808 15.4869 97.2453 15.3502 97.5163 15.4088L102.046 16.1704C102.298 16.229 102.423 16.3657 102.423 16.5806C102.423 16.8149 102.356 17.1372 102.22 17.5473C101.717 18.9729 100.836 20.0763 99.5779 20.8575C98.339 21.6192 96.9066 22 95.2805 22Z" fill="black"/>
<path d="M110.874 22C109.035 22 107.477 21.502 106.199 20.506C104.941 19.51 104.109 18.1625 103.702 16.4634C103.509 15.7603 103.412 14.9791 103.412 14.1198C103.412 13.1629 103.528 12.2938 103.76 11.5127C104.225 9.8917 105.077 8.62228 106.316 7.70439C107.574 6.76698 109.103 6.29827 110.903 6.29827C112.704 6.29827 114.213 6.76698 115.433 7.70439C116.672 8.62228 117.524 9.87217 117.988 11.4541C118.22 12.2743 118.337 13.1434 118.337 14.0613C118.337 14.8034 118.259 15.5455 118.104 16.2876C117.698 18.0453 116.856 19.4416 115.578 20.4767C114.32 21.4922 112.752 22 110.874 22ZM110.874 17.2836C111.378 17.2836 111.784 17.1176 112.094 16.7856C112.403 16.4341 112.616 15.9751 112.733 15.4088C112.81 15.0377 112.849 14.5983 112.849 14.0905C112.849 13.6414 112.8 13.1922 112.704 12.743C112.413 11.5908 111.803 11.0146 110.874 11.0146C109.906 11.0146 109.297 11.5908 109.045 12.743C108.948 13.075 108.9 13.5242 108.9 14.0905C108.9 14.5983 108.938 15.0377 109.016 15.4088C109.306 16.6587 109.926 17.2836 110.874 17.2836Z" fill="black"/>
<path d="M126.688 22C124.501 22 122.768 21.5704 121.49 20.7111C120.232 19.8518 119.603 18.7093 119.603 17.2836V17.02C119.603 16.8833 119.642 16.7759 119.719 16.6977C119.797 16.6196 119.903 16.5806 120.039 16.5806H124.394C124.684 16.5806 124.83 16.688 124.83 16.9028C124.83 17.2153 124.994 17.4692 125.323 17.6644C125.672 17.8597 126.117 17.9574 126.659 17.9574C127.085 17.9574 127.424 17.8988 127.675 17.7816C127.946 17.6449 128.082 17.4594 128.082 17.225C128.082 16.9516 127.927 16.7661 127.617 16.6684C127.307 16.5513 126.756 16.4243 125.962 16.2876C125.226 16.19 124.568 16.0728 123.988 15.9361C123.407 15.7994 122.845 15.5943 122.303 15.3209C120.639 14.5007 119.806 13.2117 119.806 11.4541C119.806 9.87217 120.416 8.62228 121.636 7.70439C122.855 6.76698 124.462 6.29827 126.456 6.29827C127.811 6.29827 128.992 6.52286 129.998 6.97204C131.024 7.40169 131.818 8.01687 132.379 8.81758C132.94 9.61829 133.221 10.5459 133.221 11.6005C133.221 11.8154 133.076 11.9228 132.786 11.9228H128.575C128.285 11.9228 128.14 11.8154 128.14 11.6005C128.14 11.2685 127.995 11.0146 127.704 10.8389C127.414 10.6436 127.027 10.5459 126.543 10.5459C126.098 10.5459 125.73 10.6241 125.439 10.7803C125.168 10.917 125.033 11.1123 125.033 11.3662C125.033 11.6787 125.217 11.8935 125.585 12.0107C125.952 12.1278 126.543 12.245 127.356 12.3622C127.453 12.3817 127.82 12.4403 128.459 12.5379C129.117 12.6356 129.746 12.7918 130.347 13.0067C131.392 13.3777 132.186 13.8953 132.728 14.5593C133.289 15.2037 133.57 16.0533 133.57 17.1079C133.57 18.7093 132.95 19.9299 131.711 20.7696C130.472 21.5899 128.798 22 126.688 22Z" fill="black"/>
<path d="M144.767 10.4874C144.767 10.6241 144.728 10.7315 144.651 10.8096C144.573 10.8877 144.467 10.9268 144.331 10.9268H141.921C141.824 10.9268 141.776 10.9756 141.776 11.0732V15.6724C141.776 16.6489 142.124 17.1372 142.821 17.1372H143.896C144.031 17.1372 144.138 17.1762 144.215 17.2543C144.292 17.3324 144.331 17.4399 144.331 17.5766V21.3262C144.331 21.5996 144.186 21.7559 143.896 21.7949C143.141 21.8535 142.415 21.8828 141.718 21.8828C139.956 21.8828 138.659 21.6094 137.827 21.0626C136.995 20.5158 136.569 19.4807 136.549 17.9574V11.0732C136.549 10.9756 136.501 10.9268 136.404 10.9268H134.836C134.701 10.9268 134.594 10.8877 134.517 10.8096C134.439 10.7315 134.401 10.6241 134.401 10.4874V6.97204C134.401 6.83533 134.439 6.72792 134.517 6.6498C134.594 6.57168 134.701 6.53262 134.836 6.53262H136.404C136.501 6.53262 136.549 6.4838 136.549 6.38615V2.87084C136.549 2.73413 136.588 2.62672 136.666 2.5486C136.743 2.47048 136.849 2.43143 136.985 2.43143H141.34C141.476 2.43143 141.582 2.47048 141.66 2.5486C141.737 2.62672 141.776 2.73413 141.776 2.87084V6.38615C141.776 6.4838 141.824 6.53262 141.921 6.53262H144.331C144.467 6.53262 144.573 6.57168 144.651 6.6498C144.728 6.72792 144.767 6.83533 144.767 6.97204V10.4874Z" fill="black"/>
<path d="M152.799 6.29827C154.115 6.29827 155.325 6.52286 156.429 6.97204C157.532 7.42122 158.403 8.0364 159.042 8.81758C159.681 9.59876 160 10.4483 160 11.3662V21.3262C160 21.4629 159.961 21.5704 159.884 21.6485C159.806 21.7266 159.7 21.7656 159.564 21.7656H154.977C154.841 21.7656 154.735 21.7266 154.657 21.6485C154.58 21.5704 154.541 21.4629 154.541 21.3262V20.3009C154.541 20.2228 154.522 20.1838 154.483 20.1838C154.464 20.1642 154.435 20.1838 154.396 20.2423C154.067 20.8478 153.612 21.2969 153.031 21.5899C152.451 21.8633 151.686 22 150.737 22C149.15 22 147.901 21.6387 146.992 20.9161C146.082 20.174 145.627 19.0999 145.627 17.6937C145.627 16.2095 146.14 15.067 147.166 14.2663C148.211 13.4656 149.721 13.0652 151.696 13.0652H154.396C154.493 13.0652 154.541 13.0164 154.541 12.9188V12.3915C154.541 11.9814 154.386 11.6494 154.077 11.3955C153.786 11.1416 153.389 11.0146 152.886 11.0146C152.538 11.0146 152.228 11.0732 151.957 11.1904C151.686 11.3076 151.492 11.4638 151.376 11.6591C151.299 11.7958 151.221 11.8935 151.144 11.9521C151.086 11.9911 150.999 12.0009 150.883 11.9814L146.208 11.3955C145.937 11.3564 145.801 11.2392 145.801 11.0439C145.879 10.1651 146.227 9.3644 146.846 8.64181C147.466 7.91922 148.289 7.35286 149.315 6.94274C150.36 6.51309 151.521 6.29827 152.799 6.29827ZM152.421 18.1917C153.041 18.1917 153.544 18.0257 153.931 17.6937C154.338 17.3617 154.541 16.9126 154.541 16.3462V15.9654C154.541 15.8677 154.493 15.8189 154.396 15.8189H152.944C151.725 15.8189 151.115 16.2193 151.115 17.02C151.115 17.3715 151.221 17.6547 151.434 17.8695C151.667 18.0843 151.996 18.1917 152.421 18.1917Z" fill="black"/>
</svg>
