<svg width="40" height="40" viewBox="0 0 40 40" fill="none" xmlns="http://www.w3.org/2000/svg">
<circle cx="20" cy="20" r="20" fill="#292730"/>
<path d="M15.5145 13.5194C15.5142 14.0105 15.3113 14.4814 14.9504 14.8285C14.5894 15.1756 14.1 15.3704 13.5898 15.3702C13.0796 15.3699 12.5904 15.1746 12.2298 14.8272C11.8692 14.4797 11.6667 14.0086 11.667 13.5175C11.6672 13.0264 11.8702 12.5555 12.2311 12.2084C12.5921 11.8613 13.0815 11.6664 13.5917 11.6667C14.1019 11.6669 14.5911 11.8623 14.9517 12.2097C15.3123 12.5572 15.5147 13.0282 15.5145 13.5194ZM15.5722 16.7414H11.7247V28.3334H15.5722V16.7414ZM21.6513 16.7414H17.823V28.3334H21.6128V22.2504C21.6128 18.8617 26.2009 18.5469 26.2009 22.2504V28.3334H30.0003V20.9912C30.0003 15.2785 23.2095 15.4915 21.6128 18.2969L21.6513 16.7414Z" fill="white"/>
</svg>
