<svg width="40" height="40" viewBox="0 0 40 40" fill="none" xmlns="http://www.w3.org/2000/svg">
<circle cx="20" cy="20" r="20" fill="#2D274D"/>
<path d="M27.2727 11.8182H12.7273C11.1818 11.8182 10 13.0001 10 14.5455V25.4546C10 27.0001 11.1818 28.1819 12.7273 28.1819H27.2727C28.8182 28.1819 30 27.0001 30 25.4546V14.5455C30 13.0001 28.8182 11.8182 27.2727 11.8182ZM12.7273 13.6364H27.2727C27.6364 13.6364 27.9091 13.8182 28.0909 14.1819L20 19.8182L11.9091 14.1819C12.0909 13.8182 12.3636 13.6364 12.7273 13.6364ZM27.2727 26.3637H12.7273C12.1818 26.3637 11.8182 26.0001 11.8182 25.4546V16.2728L19.4545 21.6364C19.6364 21.7273 19.8182 21.8182 20 21.8182C20.1818 21.8182 20.3636 21.7273 20.5455 21.6364L28.1818 16.2728V25.4546C28.1818 26.0001 27.8182 26.3637 27.2727 26.3637Z" fill="white"/>
</svg>
