<svg width="40" height="40" viewBox="0 0 40 40" fill="none" xmlns="http://www.w3.org/2000/svg">
<circle cx="20" cy="20" r="20" fill="#2D274D"/>
<path d="M16.3023 13.3334C16.9274 13.3334 17.5055 13.3823 18.0337 13.5271C18.5629 13.6239 18.9962 13.8176 19.3806 14.0592C19.766 14.3018 20.0546 14.6402 20.2463 15.0755C20.439 15.5108 20.5359 16.0439 20.5359 16.6239C20.5359 17.3018 20.3911 17.8819 20.0546 18.3171C19.766 18.7534 19.2848 19.1398 18.7077 19.4303C19.5254 19.6729 20.1505 20.1082 20.5359 20.6892C20.9203 21.2693 21.1609 21.9951 21.1609 22.8177C21.1609 23.4956 21.0161 24.0756 20.7755 24.5598C20.5359 25.044 20.1505 25.4793 19.7171 25.7698C19.2464 26.0812 18.7261 26.3101 18.1785 26.4467C17.6014 26.5925 17.0242 26.6893 16.4471 26.6893H10V13.3334H16.3023ZM15.9169 18.7524C16.4461 18.7524 16.8795 18.6077 17.216 18.3661C17.5524 18.1244 17.6972 17.6882 17.6972 17.1561C17.6972 16.8655 17.6483 16.576 17.5524 16.3823C17.4566 16.1887 17.3118 16.0429 17.1201 15.8981C16.9274 15.8013 16.7347 15.7045 16.4941 15.6565C16.2534 15.6076 16.0138 15.6076 15.7242 15.6076H12.9345V18.7534H15.9179L15.9169 18.7524ZM16.0617 24.463C16.3503 24.463 16.6388 24.4141 16.8795 24.3661C17.1201 24.3172 17.3607 24.2214 17.5524 24.0756C17.7485 23.934 17.9124 23.7527 18.0337 23.5435C18.1296 23.3019 18.2264 23.0114 18.2264 22.6729C18.2264 21.9951 18.0337 21.5109 17.6493 21.1724C17.2639 20.8819 16.7347 20.7371 16.1096 20.7371H12.9345V24.464L16.0617 24.463ZM25.3465 24.4141C25.7309 24.8014 26.308 24.9951 27.0779 24.9951C27.607 24.9951 28.0883 24.8503 28.4727 24.6087C28.8581 24.3182 29.0988 24.0277 29.1946 23.7382H31.552C31.1666 24.8983 30.5895 25.7209 29.8206 26.254C29.0498 26.7372 28.1362 27.0277 27.0299 27.0277C26.3221 27.0299 25.6202 26.8985 24.9611 26.6404C24.368 26.418 23.8391 26.0524 23.4215 25.5761C22.9747 25.1307 22.6445 24.5821 22.4599 23.9788C22.2193 23.3498 22.1225 22.6729 22.1225 21.8982C22.1225 21.1724 22.2193 20.4955 22.4599 19.8656C22.6917 19.2595 23.0343 18.7019 23.4704 18.2213C23.9097 17.7702 24.4322 17.4085 25.009 17.1561C25.6514 16.8979 26.3376 16.7664 27.0299 16.7687C27.8477 16.7687 28.5696 16.9145 29.1946 17.2529C29.8206 17.5913 30.3009 17.9787 30.6853 18.5597C31.0707 19.0919 31.3603 19.7208 31.552 20.3987C31.6479 21.0756 31.6958 21.7535 31.6479 22.5272H24.6725C24.6725 23.3019 24.9611 24.0277 25.3465 24.4151V24.4141ZM28.3769 19.3335C28.0404 18.995 27.5112 18.8013 26.8852 18.8013C26.4528 18.8013 26.1153 18.8992 25.8268 19.0439C25.5382 19.1887 25.3465 19.3824 25.1538 19.5761C24.9764 19.763 24.8589 19.9987 24.8163 20.2529C24.7684 20.4955 24.7205 20.6892 24.7205 20.8819H29.0498C28.954 20.1561 28.7134 19.6729 28.3769 19.3335ZM24.1433 14.2529H29.5311V15.5597H24.1443V14.2529H24.1433Z" fill="white"/>
</svg>
