<svg width="40" height="40" viewBox="0 0 40 40" fill="none" xmlns="http://www.w3.org/2000/svg">
<circle cx="20" cy="20" r="20" fill="#292730"/>
<path d="M16.3023 13.3333C16.9274 13.3333 17.5055 13.3822 18.0337 13.527C18.5629 13.6238 18.9962 13.8175 19.3806 14.0591C19.766 14.3017 20.0546 14.6401 20.2463 15.0754C20.439 15.5107 20.5359 16.0438 20.5359 16.6239C20.5359 17.3017 20.3911 17.8818 20.0546 18.3171C19.766 18.7533 19.2848 19.1397 18.7077 19.4302C19.5254 19.6728 20.1505 20.1081 20.5359 20.6891C20.9203 21.2692 21.1609 21.995 21.1609 22.8176C21.1609 23.4955 21.0161 24.0756 20.7755 24.5598C20.5359 25.044 20.1505 25.4792 19.7171 25.7698C19.2464 26.0811 18.7261 26.31 18.1785 26.4467C17.6014 26.5924 17.0242 26.6892 16.4471 26.6892H10V13.3333H16.3023ZM15.9169 18.7524C16.4461 18.7524 16.8795 18.6076 17.216 18.366C17.5524 18.1244 17.6972 17.6881 17.6972 17.156C17.6972 16.8655 17.6483 16.5759 17.5524 16.3823C17.4566 16.1886 17.3118 16.0428 17.1201 15.8981C16.9274 15.8012 16.7347 15.7044 16.4941 15.6565C16.2534 15.6076 16.0138 15.6076 15.7242 15.6076H12.9345V18.7533H15.9179L15.9169 18.7524ZM16.0617 24.4629C16.3503 24.4629 16.6388 24.414 16.8795 24.3661C17.1201 24.3172 17.3607 24.2213 17.5524 24.0756C17.7485 23.934 17.9124 23.7526 18.0337 23.5434C18.1296 23.3018 18.2264 23.0113 18.2264 22.6729C18.2264 21.995 18.0337 21.5108 17.6493 21.1724C17.2639 20.8818 16.7347 20.7371 16.1096 20.7371H12.9345V24.4639L16.0617 24.4629ZM25.3465 24.414C25.7309 24.8014 26.308 24.995 27.0779 24.995C27.607 24.995 28.0883 24.8503 28.4727 24.6087C28.8581 24.3182 29.0988 24.0276 29.1946 23.7381H31.552C31.1666 24.8982 30.5895 25.7208 29.8206 26.254C29.0498 26.7372 28.1362 27.0277 27.0299 27.0277C26.3221 27.0299 25.6202 26.8985 24.9611 26.6403C24.368 26.4179 23.8391 26.0523 23.4215 25.5761C22.9747 25.1306 22.6445 24.582 22.4599 23.9787C22.2193 23.3498 22.1225 22.6729 22.1225 21.8982C22.1225 21.1724 22.2193 20.4955 22.4599 19.8655C22.6917 19.2594 23.0343 18.7018 23.4704 18.2212C23.9097 17.7701 24.4322 17.4084 25.009 17.156C25.6514 16.8978 26.3376 16.7663 27.0299 16.7686C27.8477 16.7686 28.5696 16.9144 29.1946 17.2528C29.8206 17.5913 30.3009 17.9786 30.6853 18.5597C31.0707 19.0918 31.3603 19.7208 31.552 20.3986C31.6479 21.0755 31.6958 21.7534 31.6479 22.5271H24.6725C24.6725 23.3018 24.9611 24.0276 25.3465 24.415V24.414ZM28.3769 19.3334C28.0404 18.995 27.5112 18.8013 26.8852 18.8013C26.4528 18.8013 26.1153 18.8991 25.8268 19.0439C25.5382 19.1886 25.3465 19.3823 25.1538 19.576C24.9764 19.763 24.8589 19.9987 24.8163 20.2529C24.7684 20.4955 24.7205 20.6891 24.7205 20.8818H29.0498C28.954 20.156 28.7134 19.6728 28.3769 19.3334ZM24.1433 14.2528H29.5311V15.5596H24.1443V14.2528H24.1433Z" fill="white"/>
</svg>
