<svg width="40" height="40" viewBox="0 0 40 40" fill="none" xmlns="http://www.w3.org/2000/svg">
<circle cx="20" cy="20" r="20" fill="#2D274D"/>
<path d="M15.5145 13.5193C15.5142 14.0104 15.3113 14.4813 14.9504 14.8284C14.5894 15.1755 14.1 15.3704 13.5898 15.3701C13.0796 15.3699 12.5904 15.1745 12.2298 14.8271C11.8692 14.4797 11.6667 14.0086 11.667 13.5174C11.6672 13.0263 11.8702 12.5554 12.2311 12.2083C12.5921 11.8612 13.0815 11.6664 13.5917 11.6666C14.1019 11.6669 14.5911 11.8622 14.9517 12.2096C15.3123 12.5571 15.5147 13.0282 15.5145 13.5193ZM15.5722 16.7413H11.7247V28.3333H15.5722V16.7413ZM21.6513 16.7413H17.823V28.3333H21.6128V22.2503C21.6128 18.8616 26.2009 18.5468 26.2009 22.2503V28.3333H30.0003V20.9911C30.0003 15.2785 23.2095 15.4914 21.6128 18.2968L21.6513 16.7413Z" fill="white"/>
</svg>
